<?xml version="1.0" encoding="utf-8"?>
<!-- Generator: Adobe Illustrator 19.1.0, SVG Export Plug-In . SVG Version: 6.00 Build 0)  -->
<svg version="1.1" id="Layer_1" xmlns="http://www.w3.org/2000/svg" xmlns:xlink="http://www.w3.org/1999/xlink" x="0px" y="0px"
	 viewBox="-96.1 212 446 57" style="enable-background:new -96.1 212 446 57;" xml:space="preserve">
<style type="text/css">
	.st0{fill:#58595B;}
	.st1{font-family:'Blackout-TwoAM';}
	.st2{font-size:28px;}
	.st3{fill:#EF4136;}
	.st4{font-family:'FontAwesome';}
	.st5{font-size:24px;}
</style>
<g>
	<path class="st0" d="M-96.1,240.9v-29.3h18.5v29.3H-96.1z M-94.9,236.6h4.7v-8.1h5.6v8.1h4.7v-20.9h-4.7v8.1h-5.6v-8.1h-4.7V236.6z
		"/>
	<path class="st0" d="M-77.9,240.9v-29.3h22.2v29.3H-77.9z M-76.5,236.6h5.4l1.8-5.5h4.1l1.9,5.5h5.3l-6.1-20.9h-6.3L-76.5,236.6z"
		/>
	<path class="st0" d="M-57,240.9v-29.3h18.6v29.3H-57z M-55.4,236.6h5v-10.3l5.6,10.3h4.8v-20.9h-5v10.2l-5.6-10.2h-4.8
		C-55.4,215.7-55.4,236.6-55.4,236.6z"/>
	<path class="st0" d="M-38.8,240.9v-29.3h18.4v29.3H-38.8z M-36.7,236.6h4.2h0.6c1.7,0,3.1-0.3,4.3-0.8s2.1-1.3,2.9-2.3
		s1.2-2.1,1.6-3.3c0.3-1.3,0.5-2.6,0.5-4c0-1.5-0.2-2.9-0.6-4.1c-0.4-1.3-1-2.4-1.8-3.3s-1.8-1.7-3.1-2.2c-1.2-0.5-2.7-0.8-4.3-0.8
		h-4.2v20.8H-36.7z"/>
	<path class="st0" d="M-20.6,240.9v-29.3H1.9v29.3H-20.6z M-18.3,236.6h5v-7.5l2.6,7.5h3l2.5-7.3v7.3h5v-20.9h-4.7l-4.4,12.1
		l-4.2-12.1h-4.8V236.6z"/>
	<path class="st0" d="M1.8,240.9v-29.3H24v29.3H1.8z M3.3,236.6h5.4l1.8-5.5h4.1l1.9,5.5h5.3l-6.1-20.8H9.4L3.3,236.6z"/>
	<path class="st0" d="M23.6,240.9v-29.3H42v29.3H23.6z M25.7,236.6h4.2h0.6c1.7,0,3.1-0.3,4.3-0.8s2.1-1.3,2.9-2.3s1.2-2.1,1.6-3.3
		c0.3-1.3,0.5-2.6,0.5-4c0-1.5-0.2-2.9-0.6-4.1c-0.4-1.3-1-2.4-1.8-3.3s-1.8-1.7-3.1-2.2c-1.2-0.5-2.7-0.8-4.3-0.8h-4.2L25.7,236.6
		L25.7,236.6z"/>
	<path class="st0" d="M41.8,240.9v-29.3h16.4v29.3H41.8z M43.6,236.6h12.8v-4.7h-8.1v-3.4h5.9v-4.7h-5.9v-3.4h8.1v-4.7H43.6V236.6z"
		/>
	<path class="st0" d="M65.7,240.9v-29.3h18.7v29.3H65.7z M67.1,228.4c0.1,1.1,0.2,2.1,0.5,3.1s0.7,1.9,1.3,2.6
		c0.6,0.7,1.4,1.4,2.4,1.8c1,0.4,2.2,0.7,3.6,0.7l0,0c1.3,0,2.3-0.2,3.2-0.5c0.9-0.4,1.6-0.8,2.1-1.3s1-1,1.3-1.5s0.5-1,0.7-1.3
		l-4.1-2.3c-0.3,0.7-0.7,1.2-1.2,1.7c-0.5,0.4-1.1,0.6-1.8,0.6c-0.1,0-0.2,0-0.2,0c-0.9-0.1-1.7-0.5-2.3-1.2s-0.9-1.6-0.9-2.6v-4.1
		c0-1,0.3-1.9,0.9-2.6c0.6-0.7,1.3-1.1,2.3-1.1H75c0.3,0,0.7,0.1,1,0.2c0.4,0.2,0.7,0.4,1,0.7s0.5,0.6,0.7,0.9s0.3,0.7,0.5,1
		l4.1-2.3c-0.2-0.6-0.5-1.3-0.9-1.9s-0.8-1.2-1.4-1.7c-0.6-0.5-1.3-0.9-2.1-1.2c-0.8-0.3-1.8-0.5-2.9-0.5l0,0
		c-1.3,0-2.4,0.2-3.4,0.7s-1.8,1.1-2.4,1.9c-0.7,0.9-1.2,1.8-1.5,2.8s-0.5,2-0.5,3L67.1,228.4L67.1,228.4z"/>
	<path class="st0" d="M83.3,240.9v-29.3h22.2v29.3H83.3z M84.8,236.6h5.4l1.8-5.5h4.1l1.9,5.5h5.3l-6.1-20.8h-6.3L84.8,236.6z"/>
	<path class="st0" d="M104.2,240.9v-29.3h18.6v29.3H104.2z M105.9,236.6h5v-10.3l5.6,10.3h4.8v-20.9h-5v10.2l-5.6-10.2h-4.8V236.6z"
		/>
	<path class="st0" d="M122.5,240.9v-29.3h19.6v29.3H122.5z M123.6,215.7l6.4,20.8h4.2l6.7-20.8h-5.5l-3.1,9.4l-3.1-9.4
		C129.2,215.7,123.6,215.7,123.6,215.7z"/>
	<path class="st0" d="M140.7,240.9v-29.3H163v29.3H140.7z M142.2,236.6h5.4l1.8-5.5h4.1l1.9,5.5h5.3l-6.1-20.8h-6.3L142.2,236.6z"/>
	<path class="st0" d="M162.6,240.9v-29.3h17.1v29.3H162.6z M164.1,231.8c0.2,0.7,0.5,1.4,0.9,2c0.4,0.6,0.9,1.1,1.5,1.5
		c0.6,0.4,1.3,0.7,2,1s1.5,0.3,2.4,0.3c1.1,0,2.1-0.1,2.9-0.4s1.6-0.6,2.2-1c0.6-0.4,1.1-1,1.4-1.5s0.5-1.2,0.6-1.9v-0.4
		c0-1.1-0.2-2-0.6-2.8c-0.4-0.8-0.9-1.5-1.5-2.1s-1.3-1.2-2.1-1.6c-0.8-0.4-1.6-1-2.5-1.5c-0.6-0.4-1.1-0.8-1.4-1.1
		s-0.4-0.6-0.4-0.9c0-0.5,0.2-0.8,0.5-1c0.3-0.2,0.6-0.3,1-0.3s0.7,0.1,0.9,0.2c0.2,0.1,0.5,0.3,0.7,0.5s0.3,0.4,0.5,0.7
		s0.2,0.5,0.2,0.7l4.1-1.6c-0.1-0.6-0.3-1.1-0.6-1.7c-0.3-0.6-0.7-1.1-1.2-1.5c-0.5-0.4-1.2-0.8-2-1.1s-1.7-0.4-2.7-0.4
		c-0.9,0-1.7,0.2-2.5,0.4s-1.5,0.6-2.1,1.1s-1.1,1-1.5,1.7c-0.4,0.7-0.6,1.5-0.6,2.4c0,1,0.2,1.8,0.5,2.5s0.8,1.2,1.4,1.8
		c0.6,0.6,1.3,1,2.1,1.5s1.7,1,2.6,1.7c0.4,0.3,0.8,0.6,1,0.8c0.3,0.3,0.4,0.6,0.4,1c0,0.5-0.1,0.8-0.4,1.1
		c-0.3,0.2-0.6,0.4-0.9,0.4c-0.1,0-0.1,0-0.2,0c-0.3,0-0.6-0.1-0.8-0.2c-0.3-0.2-0.6-0.5-0.8-0.7s-0.4-0.5-0.5-0.8
		c-0.1-0.3-0.2-0.4-0.1-0.4L164.1,231.8z"/>
	<path class="st0" d="M187.4,240.9v-29.3h18.9v29.3H187.4z M188.6,228.4c0,1.2,0.2,2.3,0.6,3.3s0.9,1.9,1.5,2.6s1.4,1.3,2.4,1.7
		s2.1,0.6,3.3,0.6l0,0c0.8,0,1.6-0.1,2.3-0.3s1.4-0.5,2-0.9c0.6-0.4,1.2-0.8,1.7-1.2c0.5-0.5,0.9-1,1.3-1.5v-7.3H197v4h2.2v1
		c-0.2,0.4-0.5,0.7-0.9,0.9s-0.9,0.3-1.5,0.3h-0.1c-0.5,0-0.9-0.1-1.3-0.3s-0.7-0.4-1-0.7c-0.3-0.3-0.5-0.7-0.7-1.1
		s-0.3-0.9-0.3-1.4V224c0-1,0.3-1.9,0.8-2.5s1.3-0.9,2.2-0.9c0.5,0,0.9,0.1,1.2,0.2c0.3,0.1,0.6,0.4,0.8,0.6
		c0.2,0.2,0.4,0.5,0.5,0.7c0.1,0.2,0.2,0.5,0.3,0.7l3.9-2.6c-0.2-0.3-0.4-0.7-0.6-1.2s-0.6-1-1.1-1.5s-1.1-1-1.9-1.3
		s-1.8-0.6-3.1-0.7l0,0c-1.3,0-2.4,0.2-3.4,0.7s-1.8,1.1-2.4,1.8c-0.7,0.8-1.1,1.6-1.5,2.6s-0.5,2.1-0.5,3.2V228.4z"/>
	<path class="st0" d="M206.1,240.9v-29.3h18.6v29.3H206.1z M207.8,228.3c0,1.1,0.2,2.2,0.5,3.2s0.8,1.9,1.6,2.7
		c0.8,0.8,1.7,1.4,2.6,1.8s2,0.6,3.1,0.6l0,0c1.1,0,2.1-0.2,3.1-0.6s1.9-1.1,2.6-1.9c0.7-0.8,1.3-1.7,1.6-2.7s0.5-2.1,0.5-3.1v-4.9
		c0-0.9-0.2-1.9-0.5-2.8c-0.3-0.9-0.8-1.7-1.5-2.4c-0.8-0.8-1.6-1.4-2.6-1.9s-2-0.6-3.1-0.6l0,0c-1.1,0-2.1,0.2-3.1,0.6
		c-1,0.4-1.8,1-2.6,1.9c-0.7,0.7-1.2,1.5-1.5,2.4c-0.3,0.9-0.5,1.8-0.5,2.7v5H207.8z"/>
	<path class="st0" d="M224.5,240.9v-29.3h18.6v29.3H224.5z M226.2,228.3c0,1.1,0.2,2.2,0.5,3.2s0.8,1.9,1.6,2.7
		c0.8,0.8,1.7,1.4,2.6,1.8s2,0.6,3.1,0.6l0,0c1.1,0,2.1-0.2,3.1-0.6s1.9-1.1,2.6-1.9c0.7-0.8,1.3-1.7,1.6-2.7s0.5-2.1,0.5-3.1v-4.9
		c0-0.9-0.2-1.9-0.5-2.8c-0.3-0.9-0.8-1.7-1.5-2.4c-0.8-0.8-1.6-1.4-2.6-1.9s-2-0.6-3.1-0.6l0,0c-1.1,0-2.1,0.2-3.1,0.6
		c-1,0.4-1.8,1-2.6,1.9c-0.7,0.7-1.2,1.5-1.5,2.4c-0.3,0.9-0.5,1.8-0.5,2.7v5H226.2z"/>
	<path class="st0" d="M242.9,240.9v-29.3h18.4v29.3H242.9z M244.9,236.6h4.2h0.6c1.7,0,3.1-0.3,4.3-0.8s2.1-1.3,2.9-2.3
		s1.2-2.1,1.6-3.3c0.3-1.3,0.5-2.6,0.5-4c0-1.5-0.2-2.9-0.6-4.1c-0.4-1.3-1-2.4-1.8-3.3s-1.8-1.7-3.1-2.2c-1.2-0.5-2.7-0.8-4.3-0.8
		H245v20.8H244.9z"/>
	<path class="st0" d="M261,240.9v-29.3h17.1v29.3H261z M262.5,231.8c0.2,0.7,0.5,1.4,0.9,2c0.4,0.6,0.9,1.1,1.5,1.5
		c0.6,0.4,1.3,0.7,2,1s1.5,0.3,2.4,0.3c1.1,0,2.1-0.1,2.9-0.4s1.6-0.6,2.2-1c0.6-0.4,1.1-1,1.4-1.5s0.5-1.2,0.6-1.9v-0.4
		c0-1.1-0.2-2-0.6-2.8c-0.4-0.8-0.9-1.5-1.5-2.1s-1.3-1.2-2.1-1.6c-0.8-0.4-1.6-1-2.5-1.5c-0.6-0.4-1.1-0.8-1.4-1.1
		s-0.3-0.6-0.3-0.9c0-0.5,0.2-0.8,0.5-1c0.3-0.2,0.6-0.3,1-0.3s0.7,0.1,0.9,0.2c0.2,0.1,0.5,0.3,0.7,0.5s0.3,0.4,0.5,0.7
		s0.2,0.5,0.2,0.7l4.1-1.6c-0.1-0.6-0.3-1.1-0.6-1.7c-0.3-0.6-0.7-1.1-1.2-1.5c-0.5-0.4-1.2-0.8-2-1.1s-1.7-0.4-2.7-0.4
		c-0.9,0-1.7,0.2-2.5,0.4s-1.5,0.6-2.1,1.1s-1.1,1-1.5,1.7c-0.4,0.7-0.6,1.5-0.6,2.4c0,1,0.2,1.8,0.5,2.5s0.8,1.2,1.4,1.8
		c0.6,0.6,1.3,1,2.1,1.5s1.7,1,2.6,1.7c0.4,0.3,0.8,0.6,1,0.8c0.3,0.3,0.4,0.6,0.4,1c0,0.5-0.1,0.8-0.4,1.1
		c-0.3,0.2-0.6,0.4-0.9,0.4c-0.1,0-0.1,0-0.2,0c-0.3,0-0.6-0.1-0.8-0.2c-0.3-0.2-0.6-0.5-0.8-0.7s-0.4-0.5-0.5-0.8
		c-0.1-0.3-0.2-0.4-0.1-0.4L262.5,231.8z"/>
</g>
<text transform="matrix(1 0 0 1 44.9885 265.2244)" class="st0 st1 st2">FROM </text>
<text transform="matrix(1 0 0 1 125.0885 264.2244)" class="st3 st4 st5"></text>
<text transform="matrix(1 0 0 1 149.0885 265.2244)" class="st0 st1 st2"> NEW EN</text>
<text transform="matrix(1 0 0 1 260.9885 265.2244)" class="st0 st1 st2">GL</text>
<text transform="matrix(1 0 0 1 292.3885 265.2244)" class="st0 st1 st2">AND</text>
<rect x="58.2" y="211.6" class="st0" width="7.6" height="29.3"/>
<rect x="179.6" y="211.6" class="st0" width="8" height="29.3"/>
</svg>
