<?xml version="1.0" encoding="utf-8"?>
<!-- Generator: Adobe Illustrator 19.1.0, SVG Export Plug-In . SVG Version: 6.00 Build 0)  -->
<svg version="1.1" id="Layer_1" xmlns="http://www.w3.org/2000/svg" xmlns:xlink="http://www.w3.org/1999/xlink" x="0px" y="0px"
	 viewBox="-96 212 446 57" style="enable-background:new -96 212 446 57;" xml:space="preserve">
<style type="text/css">
	.st0{fill:#58595B;}
	.st1{enable-background:new    ;}
	.st2{fill:#EF4136;}
</style>
<g>
	<path class="st0" d="M-96,241.3V212h18.5v29.3H-96z M-94.8,237h4.7v-8.1h5.6v8.1h4.7v-20.9h-4.7v8.1h-5.6v-8.1h-4.7V237z"/>
	<path class="st0" d="M-77.8,241.3V212h22.2v29.3H-77.8z M-76.4,237h5.4l1.8-5.5h4.1l1.9,5.5h5.3l-6.1-20.9h-6.3L-76.4,237z"/>
	<path class="st0" d="M-56.9,241.3V212h18.6v29.3H-56.9z M-55.3,237h5v-10.3l5.6,10.3h4.8v-20.9h-5v10.2l-5.6-10.2h-4.8
		C-55.3,216.1-55.3,237-55.3,237z"/>
	<path class="st0" d="M-38.7,241.3V212h18.4v29.3H-38.7z M-36.6,237h4.2h0.6c1.7,0,3.1-0.3,4.3-0.8s2.1-1.3,2.9-2.3s1.2-2.1,1.6-3.3
		c0.3-1.3,0.5-2.6,0.5-4c0-1.5-0.2-2.9-0.6-4.1c-0.4-1.3-1-2.4-1.8-3.3s-1.8-1.7-3.1-2.2c-1.2-0.5-2.7-0.8-4.3-0.8h-4.2V237
		L-36.6,237L-36.6,237z"/>
	<path class="st0" d="M-20.5,241.3V212H2v29.3H-20.5z M-18.2,237h5v-7.5l2.6,7.5h3l2.5-7.3v7.3h5v-20.9h-4.7l-4.4,12.1l-4.2-12.1
		h-4.8V237z"/>
	<path class="st0" d="M1.9,241.3V212h22.2v29.3H1.9z M3.4,237h5.4l1.8-5.5h4.1l1.9,5.5h5.3l-6.1-20.8H9.5L3.4,237z"/>
	<path class="st0" d="M23.7,241.3V212h18.4v29.3H23.7z M25.8,237H30h0.6c1.7,0,3.1-0.3,4.3-0.8s2.1-1.3,2.9-2.3s1.2-2.1,1.6-3.3
		c0.3-1.3,0.5-2.6,0.5-4c0-1.5-0.2-2.9-0.6-4.1c-0.4-1.3-1-2.4-1.8-3.3s-1.8-1.7-3.1-2.2c-1.2-0.5-2.7-0.8-4.3-0.8h-4.2L25.8,237
		L25.8,237z"/>
	<path class="st0" d="M41.9,241.3V212h16.4v29.3H41.9z M43.7,237h12.8v-4.7h-8.1v-3.4h5.9v-4.7h-5.9v-3.4h8.1v-4.7H43.7V237z"/>
	<path class="st0" d="M65.8,241.3V212h18.7v29.3H65.8z M67.2,228.8c0.1,1.1,0.2,2.1,0.5,3.1s0.7,1.9,1.3,2.6
		c0.6,0.7,1.4,1.4,2.4,1.8c1,0.4,2.2,0.7,3.6,0.7l0,0c1.3,0,2.3-0.2,3.2-0.5c0.9-0.4,1.6-0.8,2.1-1.3s1-1,1.3-1.5s0.5-1,0.7-1.3
		l-4.1-2.3c-0.3,0.7-0.7,1.2-1.2,1.7c-0.5,0.4-1.1,0.6-1.8,0.6c-0.1,0-0.2,0-0.2,0c-0.9-0.1-1.7-0.5-2.3-1.2s-0.9-1.6-0.9-2.6v-4.1
		c0-1,0.3-1.9,0.9-2.6c0.6-0.7,1.3-1.1,2.3-1.1h0.1c0.3,0,0.7,0.1,1,0.2c0.4,0.2,0.7,0.4,1,0.7s0.5,0.6,0.7,0.9s0.3,0.7,0.5,1
		l4.1-2.3c-0.2-0.6-0.5-1.3-0.9-1.9s-0.8-1.2-1.4-1.7s-1.3-0.9-2.1-1.2c-0.8-0.3-1.8-0.5-2.9-0.5l0,0c-1.3,0-2.4,0.2-3.4,0.7
		s-1.8,1.1-2.4,1.9c-0.7,0.9-1.2,1.8-1.5,2.8s-0.5,2-0.5,3L67.2,228.8L67.2,228.8z"/>
	<path class="st0" d="M83.4,241.3V212h22.2v29.3H83.4z M84.9,237h5.4l1.8-5.5h4.1l1.9,5.5h5.3l-6.1-20.8H91L84.9,237z"/>
	<path class="st0" d="M104.3,241.3V212h18.6v29.3H104.3z M106,237h5v-10.3l5.6,10.3h4.8v-20.9h-5v10.2l-5.6-10.2H106V237z"/>
	<path class="st0" d="M122.6,241.3V212h19.6v29.3H122.6z M123.7,216.1l6.4,20.8h4.2l6.7-20.8h-5.5l-3.1,9.4l-3.1-9.4
		C129.3,216.1,123.7,216.1,123.7,216.1z"/>
	<path class="st0" d="M140.8,241.3V212h22.3v29.3H140.8z M142.3,237h5.4l1.8-5.5h4.1l1.9,5.5h5.3l-6.1-20.8h-6.3L142.3,237z"/>
	<path class="st0" d="M162.7,241.3V212h17.1v29.3H162.7z M164.2,232.2c0.2,0.7,0.5,1.4,0.9,2s0.9,1.1,1.5,1.5s1.3,0.7,2,1
		c0.7,0.3,1.5,0.3,2.4,0.3c1.1,0,2.1-0.1,2.9-0.4s1.6-0.6,2.2-1c0.6-0.4,1.1-1,1.4-1.5s0.5-1.2,0.6-1.9v-0.4c0-1.1-0.2-2-0.6-2.8
		c-0.4-0.8-0.9-1.5-1.5-2.1s-1.3-1.2-2.1-1.6c-0.8-0.4-1.6-1-2.5-1.5c-0.6-0.4-1.1-0.8-1.4-1.1s-0.4-0.6-0.4-0.9
		c0-0.5,0.2-0.8,0.5-1c0.3-0.2,0.6-0.3,1-0.3s0.7,0.1,0.9,0.2c0.2,0.1,0.5,0.3,0.7,0.5c0.2,0.2,0.3,0.4,0.5,0.7
		c0.2,0.3,0.2,0.5,0.2,0.7l4.1-1.6c-0.1-0.6-0.3-1.1-0.6-1.7c-0.3-0.6-0.7-1.1-1.2-1.5s-1.2-0.8-2-1.1c-0.8-0.3-1.7-0.4-2.7-0.4
		c-0.9,0-1.7,0.2-2.5,0.4c-0.8,0.2-1.5,0.6-2.1,1.1s-1.1,1-1.5,1.7s-0.6,1.5-0.6,2.4c0,1,0.2,1.8,0.5,2.5c0.3,0.7,0.8,1.2,1.4,1.8
		c0.6,0.6,1.3,1,2.1,1.5c0.8,0.5,1.7,1,2.6,1.7c0.4,0.3,0.8,0.6,1,0.8c0.3,0.3,0.4,0.6,0.4,1c0,0.5-0.1,0.8-0.4,1.1
		c-0.3,0.2-0.6,0.4-0.9,0.4c-0.1,0-0.1,0-0.2,0c-0.3,0-0.6-0.1-0.8-0.2c-0.3-0.2-0.6-0.5-0.8-0.7c-0.2-0.2-0.4-0.5-0.5-0.8
		s-0.2-0.4-0.1-0.4L164.2,232.2z"/>
	<path class="st0" d="M187.5,241.3V212h18.9v29.3H187.5z M188.7,228.8c0,1.2,0.2,2.3,0.6,3.3c0.4,1,0.9,1.9,1.5,2.6s1.4,1.3,2.4,1.7
		s2.1,0.6,3.3,0.6l0,0c0.8,0,1.6-0.1,2.3-0.3c0.7-0.2,1.4-0.5,2-0.9s1.2-0.8,1.7-1.2c0.5-0.5,0.9-1,1.3-1.5v-7.3h-6.7v4h2.2v1
		c-0.2,0.4-0.5,0.7-0.9,0.9s-0.9,0.3-1.5,0.3h-0.1c-0.5,0-0.9-0.1-1.3-0.3c-0.4-0.2-0.7-0.4-1-0.7c-0.3-0.3-0.5-0.7-0.7-1.1
		c-0.2-0.4-0.3-0.9-0.3-1.4v-4.1c0-1,0.3-1.9,0.8-2.5s1.3-0.9,2.2-0.9c0.5,0,0.9,0.1,1.2,0.2c0.3,0.1,0.6,0.4,0.8,0.6
		c0.2,0.2,0.4,0.5,0.5,0.7s0.2,0.5,0.3,0.7l3.9-2.6c-0.2-0.3-0.4-0.7-0.6-1.2s-0.6-1-1.1-1.5s-1.1-1-1.9-1.3s-1.8-0.6-3.1-0.7l0,0
		c-1.3,0-2.4,0.2-3.4,0.7s-1.8,1.1-2.4,1.8c-0.7,0.8-1.1,1.6-1.5,2.6s-0.5,2.1-0.5,3.2L188.7,228.8L188.7,228.8z"/>
	<path class="st0" d="M206.2,241.3V212h18.6v29.3H206.2z M207.9,228.7c0,1.1,0.2,2.2,0.5,3.2c0.3,1,0.8,1.9,1.6,2.7
		c0.8,0.8,1.7,1.4,2.6,1.8c0.9,0.4,2,0.6,3.1,0.6l0,0c1.1,0,2.1-0.2,3.1-0.6s1.9-1.1,2.6-1.9c0.7-0.8,1.3-1.7,1.6-2.7
		c0.3-1,0.5-2.1,0.5-3.1v-4.9c0-0.9-0.2-1.9-0.5-2.8c-0.3-0.9-0.8-1.7-1.5-2.4c-0.8-0.8-1.6-1.4-2.6-1.9s-2-0.6-3.1-0.6l0,0
		c-1.1,0-2.1,0.2-3.1,0.6c-1,0.4-1.8,1-2.6,1.9c-0.7,0.7-1.2,1.5-1.5,2.4c-0.3,0.9-0.5,1.8-0.5,2.7v5H207.9z"/>
	<path class="st0" d="M224.6,241.3V212h18.6v29.3H224.6z M226.3,228.7c0,1.1,0.2,2.2,0.5,3.2c0.3,1,0.8,1.9,1.6,2.7
		c0.8,0.8,1.7,1.4,2.6,1.8c0.9,0.4,2,0.6,3.1,0.6l0,0c1.1,0,2.1-0.2,3.1-0.6s1.9-1.1,2.6-1.9c0.7-0.8,1.3-1.7,1.6-2.7
		c0.3-1,0.5-2.1,0.5-3.1v-4.9c0-0.9-0.2-1.9-0.5-2.8c-0.3-0.9-0.8-1.7-1.5-2.4c-0.8-0.8-1.6-1.4-2.6-1.9s-2-0.6-3.1-0.6l0,0
		c-1.1,0-2.1,0.2-3.1,0.6c-1,0.4-1.8,1-2.6,1.9c-0.7,0.7-1.2,1.5-1.5,2.4c-0.3,0.9-0.5,1.8-0.5,2.7v5H226.3z"/>
	<path class="st0" d="M243,241.3V212h18.4v29.3H243z M245,237h4.2h0.6c1.7,0,3.1-0.3,4.3-0.8c1.2-0.5,2.1-1.3,2.9-2.3
		s1.2-2.1,1.6-3.3c0.3-1.3,0.5-2.6,0.5-4c0-1.5-0.2-2.9-0.6-4.1c-0.4-1.3-1-2.4-1.8-3.3s-1.8-1.7-3.1-2.2c-1.2-0.5-2.7-0.8-4.3-0.8
		h-4.2V237L245,237L245,237z"/>
	<path class="st0" d="M261.1,241.3V212h17.1v29.3H261.1z M262.6,232.2c0.2,0.7,0.5,1.4,0.9,2s0.9,1.1,1.5,1.5s1.3,0.7,2,1
		s1.5,0.3,2.4,0.3c1.1,0,2.1-0.1,2.9-0.4s1.6-0.6,2.2-1s1.1-1,1.4-1.5s0.5-1.2,0.6-1.9v-0.4c0-1.1-0.2-2-0.6-2.8s-0.9-1.5-1.5-2.1
		s-1.3-1.2-2.1-1.6c-0.8-0.4-1.6-1-2.5-1.5c-0.6-0.4-1.1-0.8-1.4-1.1s-0.3-0.6-0.3-0.9c0-0.5,0.2-0.8,0.5-1s0.6-0.3,1-0.3
		s0.7,0.1,0.9,0.2c0.2,0.1,0.5,0.3,0.7,0.5s0.3,0.4,0.5,0.7s0.2,0.5,0.2,0.7l4.1-1.6c-0.1-0.6-0.3-1.1-0.6-1.7
		c-0.3-0.6-0.7-1.1-1.2-1.5s-1.2-0.8-2-1.1s-1.7-0.4-2.7-0.4c-0.9,0-1.7,0.2-2.5,0.4s-1.5,0.6-2.1,1.1s-1.1,1-1.5,1.7
		s-0.6,1.5-0.6,2.4c0,1,0.2,1.8,0.5,2.5s0.8,1.2,1.4,1.8s1.3,1,2.1,1.5s1.7,1,2.6,1.7c0.4,0.3,0.8,0.6,1,0.8c0.3,0.3,0.4,0.6,0.4,1
		c0,0.5-0.1,0.8-0.4,1.1c-0.3,0.2-0.6,0.4-0.9,0.4c-0.1,0-0.1,0-0.2,0c-0.3,0-0.6-0.1-0.8-0.2c-0.3-0.2-0.6-0.5-0.8-0.7
		s-0.4-0.5-0.5-0.8s-0.2-0.4-0.1-0.4L262.6,232.2z"/>
</g>
<g class="st1">
	<path class="st0" d="M45,270v-29.3h15.4V270H45z M46.4,265.6h4.7v-8.1H57v-4.7h-5.9v-3.4h8.1v-4.7H46.4V265.6z"/>
	<path class="st0" d="M60.2,270v-29.3h16.6V270H60.2z M61.9,265.6h4.7v-6.8h0.1l2.8,6.8h5.4l-4.2-8.3c0.2,0,0.6-0.1,1-0.4
		c0.4-0.3,0.9-0.6,1.3-1.1c0.4-0.5,0.8-1.1,1.1-1.8c0.3-0.7,0.5-1.6,0.5-2.5c0-0.9-0.1-1.7-0.3-2.6s-0.5-1.5-1-2.1
		c-0.5-0.6-1.1-1.1-1.9-1.5s-1.8-0.5-3-0.5h0h-6.3V265.6z"/>
	<path class="st0" d="M76.4,270v-29.3h18.6V270H76.4z M78.1,257.3c0,1.1,0.2,2.2,0.5,3.2c0.3,1,0.8,1.9,1.6,2.7
		c0.8,0.8,1.7,1.4,2.6,1.8c1,0.4,2,0.6,3.1,0.6h0c1.1,0,2.1-0.2,3.1-0.6c1-0.4,1.9-1.1,2.6-1.9c0.7-0.8,1.3-1.7,1.6-2.7
		c0.3-1,0.5-2.1,0.5-3.1v-4.9c0-0.9-0.2-1.9-0.5-2.8c-0.3-0.9-0.8-1.7-1.5-2.4c-0.8-0.8-1.6-1.4-2.6-1.9c-1-0.4-2-0.6-3.1-0.6h0
		c-1.1,0-2.1,0.2-3.1,0.6s-1.8,1-2.6,1.9c-0.7,0.7-1.2,1.5-1.5,2.4c-0.4,0.9-0.5,1.8-0.5,2.7V257.3z"/>
	<path class="st0" d="M94.8,270v-29.3h22.5V270H94.8z M97.1,265.6h5v-7.5l2.6,7.5h3l2.5-7.3v7.3h5v-20.8h-4.7l-4.4,12.1l-4.3-12.1
		h-4.8V265.6z"/>
</g>
<g class="st1">
	<path class="st2" d="M149.2,259.9v4.7c0,0.2-0.1,0.3-0.3,0.4c-0.1,0-0.1,0-0.2,0c-0.1,0-0.2,0-0.3-0.1l-1.2-1.2
		c-1.1,1.3-2.5,2.3-4.3,3c-1.8,0.7-3.7,1.1-5.8,1.1s-4-0.4-5.8-1.1c-1.8-0.7-3.2-1.8-4.3-3l-1.2,1.2c-0.1,0.1-0.2,0.1-0.3,0.1
		c0,0-0.1,0-0.2,0c-0.2-0.1-0.3-0.2-0.3-0.4v-4.7c0-0.1,0-0.2,0.1-0.3c0.1-0.1,0.2-0.1,0.3-0.1h4.7c0.2,0,0.3,0.1,0.4,0.3
		c0.1,0.2,0,0.3-0.1,0.5l-1.3,1.3c0.6,0.8,1.4,1.5,2.5,2.1c1.1,0.6,2.3,0.9,3.6,1.1v-8.7h-2.6c-0.2,0-0.4-0.1-0.6-0.3
		c-0.2-0.2-0.3-0.4-0.3-0.6v-1.7c0-0.2,0.1-0.4,0.3-0.6c0.2-0.2,0.4-0.3,0.6-0.3h2.6v-2.2c-0.5-0.3-0.9-0.7-1.2-1.2
		s-0.5-1.1-0.5-1.7c0-0.9,0.3-1.8,1-2.4c0.7-0.7,1.5-1,2.4-1s1.8,0.3,2.4,1c0.7,0.7,1,1.5,1,2.4c0,0.6-0.2,1.2-0.5,1.7
		c-0.3,0.5-0.7,0.9-1.2,1.2v2.2h2.6c0.2,0,0.4,0.1,0.6,0.3c0.2,0.2,0.3,0.4,0.3,0.6v1.7c0,0.2-0.1,0.4-0.3,0.6
		c-0.2,0.2-0.4,0.3-0.6,0.3h-2.6v8.7c1.3-0.2,2.5-0.5,3.6-1.1c1.1-0.6,1.9-1.2,2.5-2.1l-1.3-1.3c-0.1-0.1-0.2-0.3-0.1-0.5
		c0.1-0.2,0.2-0.3,0.4-0.3h4.7c0.1,0,0.2,0,0.3,0.1C149.1,259.7,149.2,259.8,149.2,259.9z M137.8,248.1c0.2-0.2,0.3-0.4,0.3-0.6
		s-0.1-0.4-0.3-0.6c-0.2-0.2-0.4-0.3-0.6-0.3c-0.2,0-0.4,0.1-0.6,0.3c-0.2,0.2-0.3,0.4-0.3,0.6s0.1,0.4,0.3,0.6
		c0.2,0.2,0.4,0.3,0.6,0.3C137.4,248.3,137.6,248.3,137.8,248.1z"/>
</g>
<g class="st1">
	<path class="st0" d="M157,270v-29.3h18.6V270H157z M158.7,265.6h5v-10.3l5.6,10.3h4.8v-20.8h-5V255l-5.6-10.2h-4.8V265.6z"/>
	<path class="st0" d="M175.3,270v-29.3h16.4V270H175.3z M177.1,265.6h12.8v-4.7h-8.1v-3.4h5.9v-4.7h-5.9v-3.4h8.1v-4.7h-12.8V265.6z
		"/>
	<path class="st0" d="M191.3,270v-29.3H219V270H191.3z M193.1,244.8l5.3,20.8h4.5l2.2-8.8l1.9,8.8h4.2l5.9-20.8h-5.8l-2.2,9.4
		l-2.2-9.4h-4l-2.2,9.4l-2.2-9.4H193.1z"/>
	<path class="st0" d="M226.7,270v-29.3H243V270H226.7z M228.5,265.6h12.8v-4.7h-8.1v-3.4h5.9v-4.7h-5.9v-3.4h8.1v-4.7h-12.8V265.6z"
		/>
	<path class="st0" d="M242.7,270v-29.3h18.6V270H242.7z M244.3,265.6h5v-10.3l5.6,10.3h4.8v-20.8h-5V255l-5.6-10.2h-4.8V265.6z"/>
</g>
<g class="st1">
	<path class="st0" d="M261,270v-29.3h18.9V270H261z M262.2,257.4c0,1.2,0.2,2.3,0.6,3.3s0.9,1.9,1.5,2.6s1.4,1.3,2.4,1.7
		c1,0.4,2.1,0.6,3.3,0.6h0c0.8,0,1.6-0.1,2.3-0.3s1.4-0.5,2-0.9c0.6-0.4,1.2-0.8,1.7-1.2c0.5-0.5,0.9-1,1.3-1.5v-7.3h-6.7v4h2.2v1
		c-0.2,0.4-0.5,0.7-0.9,0.9c-0.4,0.2-0.9,0.3-1.5,0.3c0,0-0.1,0-0.1,0c-0.5,0-0.9-0.1-1.3-0.3s-0.7-0.4-1-0.7s-0.5-0.7-0.7-1.1
		s-0.3-0.9-0.3-1.4v-4.1c0-1,0.3-1.9,0.8-2.5s1.3-0.9,2.2-0.9c0.5,0,0.9,0.1,1.2,0.2c0.3,0.2,0.6,0.4,0.8,0.6
		c0.2,0.2,0.4,0.5,0.5,0.7c0.1,0.3,0.2,0.5,0.3,0.7l3.9-2.6c-0.2-0.3-0.4-0.7-0.6-1.2c-0.2-0.5-0.6-1-1.1-1.5s-1.1-1-1.9-1.3
		c-0.8-0.4-1.8-0.6-3.1-0.7h0c-1.3,0-2.4,0.2-3.4,0.7c-1,0.5-1.8,1.1-2.4,1.8c-0.7,0.8-1.1,1.6-1.5,2.6s-0.5,2.1-0.5,3.2V257.4z"/>
	<path class="st0" d="M279.7,270v-29.3h13.7V270H279.7z M281.8,265.6h9.8v-4.7h-5.1v-16.1h-4.7V265.6z"/>
</g>
<g class="st1">
	<path class="st0" d="M292.4,270v-29.3h22.2V270H292.4z M293.9,265.6h5.4l1.8-5.5h4.1l1.9,5.5h5.3l-6.1-20.8H300L293.9,265.6z"/>
	<path class="st0" d="M313.4,270v-29.3H332V270H313.4z M315,265.6h5v-10.3l5.6,10.3h4.8v-20.8h-5V255l-5.6-10.2H315V265.6z"/>
	<path class="st0" d="M331.6,270v-29.3H350V270H331.6z M333.7,265.6h4.2h0.6c1.7,0,3.1-0.3,4.3-0.8c1.2-0.6,2.1-1.3,2.9-2.3
		s1.2-2.1,1.6-3.3s0.5-2.6,0.5-4c0-1.5-0.2-2.9-0.6-4.1c-0.4-1.3-1-2.4-1.8-3.3s-1.8-1.7-3.1-2.2c-1.2-0.5-2.7-0.8-4.3-0.8h-4.2
		V265.6z"/>
</g>
<rect x="58.3" y="212" class="st0" width="7.6" height="29.3"/>
<rect x="179.7" y="212" class="st0" width="8" height="29.3"/>
</svg>
