<?xml version="1.0" encoding="utf-8"?>
<!-- Generator: Adobe Illustrator 19.1.0, SVG Export Plug-In . SVG Version: 6.00 Build 0)  -->
<svg version="1.1" id="Layer_1" xmlns="http://www.w3.org/2000/svg" xmlns:xlink="http://www.w3.org/1999/xlink" x="0px" y="0px"
	 viewBox="-96 212 444 57" style="enable-background:new -96 212 444 57;" xml:space="preserve">
<style type="text/css">
	.st0{fill:#58595B;}
	.st1{enable-background:new    ;}
	.st2{fill:#EF4136;}
</style>
<g>
	<path class="st0" d="M-94,240.3V211h18.5v29.3H-94z M-92.8,236h4.7v-8.1h5.6v8.1h4.7v-20.9h-4.7v8.1h-5.6v-8.1h-4.7V236z"/>
	<path class="st0" d="M-75.8,240.3V211h22.2v29.3H-75.8z M-74.4,236h5.4l1.8-5.5h4.1l1.9,5.5h5.3l-6.1-20.9h-6.3L-74.4,236z"/>
	<path class="st0" d="M-53.9,240.3V211h18.6v29.3H-53.9z M-52.3,236h5v-10.3l5.6,10.3h4.8v-20.9h-5v10.2l-5.6-10.2h-4.8V236z"/>
	<path class="st0" d="M-35.7,240.3V211h18.4v29.3H-35.7z M-33.6,236h4.2h0.6c1.7,0,3.1-0.3,4.3-0.8s2.1-1.3,2.9-2.3s1.2-2.1,1.6-3.3
		c0.3-1.3,0.5-2.6,0.5-4c0-1.5-0.2-2.9-0.6-4.1c-0.4-1.3-1-2.4-1.8-3.3s-1.8-1.7-3.1-2.2c-1.2-0.5-2.7-0.8-4.3-0.8h-4.2V236H-33.6
		L-33.6,236z"/>
	<path class="st0" d="M-18.5,240.3V211H4v29.3H-18.5z M-16.2,236h5v-7.5l2.6,7.5h3l2.5-7.3v7.3h5v-20.9h-4.7l-4.4,12.1l-4.2-12.1
		h-4.8V236z"/>
	<path class="st0" d="M3.9,240.3V211h22.2v29.3H3.9z M5.4,236h5.4l1.8-5.5h4.1l1.9,5.5h5.3l-6.1-20.8h-6.3L5.4,236z"/>
	<path class="st0" d="M25.7,240.3V211h18.4v29.3H25.7z M27.8,236H32h0.6c1.7,0,3.1-0.3,4.3-0.8s2.1-1.3,2.9-2.3s1.2-2.1,1.6-3.3
		c0.3-1.3,0.5-2.6,0.5-4c0-1.5-0.2-2.9-0.6-4.1c-0.4-1.3-1-2.4-1.8-3.3s-1.8-1.7-3.1-2.2c-1.2-0.5-2.7-0.8-4.3-0.8h-4.2L27.8,236
		L27.8,236z"/>
	<path class="st0" d="M43.9,240.3V211h16.4v29.3H43.9z M45.7,236h12.8v-4.7h-8.1v-3.4h5.9v-4.7h-5.9v-3.4h8.1v-4.7H45.7V236z"/>
	<path class="st0" d="M67.8,240.3V211h18.7v29.3H67.8z M69.2,227.8c0.1,1.1,0.2,2.1,0.5,3.1s0.7,1.9,1.3,2.6
		c0.6,0.7,1.4,1.4,2.4,1.8c1,0.4,2.2,0.7,3.6,0.7l0,0c1.3,0,2.3-0.2,3.2-0.5c0.9-0.4,1.6-0.8,2.1-1.3s1-1,1.3-1.5s0.5-1,0.7-1.3
		l-4.1-2.3c-0.3,0.7-0.7,1.2-1.2,1.7c-0.5,0.4-1.1,0.6-1.8,0.6c-0.1,0-0.2,0-0.2,0c-0.9-0.1-1.7-0.5-2.3-1.2s-0.9-1.6-0.9-2.6v-4.1
		c0-1,0.3-1.9,0.9-2.6c0.6-0.7,1.3-1.1,2.3-1.1h0.1c0.3,0,0.7,0.1,1,0.2c0.4,0.2,0.7,0.4,1,0.7s0.5,0.6,0.7,0.9s0.3,0.7,0.5,1
		l4.1-2.3c-0.2-0.6-0.5-1.3-0.9-1.9s-0.8-1.2-1.4-1.7s-1.3-0.9-2.1-1.2c-0.8-0.3-1.8-0.5-2.9-0.5l0,0c-1.3,0-2.4,0.2-3.4,0.7
		s-1.8,1.1-2.4,1.9c-0.7,0.9-1.2,1.8-1.5,2.8s-0.5,2-0.5,3L69.2,227.8L69.2,227.8z"/>
	<path class="st0" d="M85.4,240.3V211h22.2v29.3H85.4z M86.9,236h5.4l1.8-5.5h4.1l1.9,5.5h5.3l-6.1-20.8H93L86.9,236z"/>
	<path class="st0" d="M107.3,240.3V211h18.6v29.3H107.3z M109,236h5v-10.3l5.6,10.3h4.8v-20.9h-5v10.2l-5.6-10.2H109V236z"/>
	<path class="st0" d="M125.6,240.3V211h19.6v29.3H125.6z M126.7,215.1l6.4,20.8h4.2l6.7-20.8h-5.5l-3.1,9.4l-3.1-9.4
		C132.3,215.1,126.7,215.1,126.7,215.1z"/>
	<path class="st0" d="M143.8,240.3V211h22.3v29.3H143.8z M145.3,236h5.4l1.8-5.5h4.1l1.9,5.5h5.3l-6.1-20.8h-6.3L145.3,236z"/>
	<path class="st0" d="M165.7,240.3V211h17.1v29.3H165.7z M167.2,231.2c0.2,0.7,0.5,1.4,0.9,2s0.9,1.1,1.5,1.5s1.3,0.7,2,1
		s1.5,0.3,2.4,0.3c1.1,0,2.1-0.1,2.9-0.4s1.6-0.6,2.2-1c0.6-0.4,1.1-1,1.4-1.5s0.5-1.2,0.6-1.9v-0.4c0-1.1-0.2-2-0.6-2.8
		c-0.4-0.8-0.9-1.5-1.5-2.1s-1.3-1.2-2.1-1.6c-0.8-0.4-1.6-1-2.5-1.5c-0.6-0.4-1.1-0.8-1.4-1.1s-0.4-0.6-0.4-0.9
		c0-0.5,0.2-0.8,0.5-1s0.6-0.3,1-0.3s0.7,0.1,0.9,0.2c0.2,0.1,0.5,0.3,0.7,0.5s0.3,0.4,0.5,0.7s0.2,0.5,0.2,0.7l4.1-1.6
		c-0.1-0.6-0.3-1.1-0.6-1.7c-0.3-0.6-0.7-1.1-1.2-1.5s-1.2-0.8-2-1.1s-1.7-0.4-2.7-0.4c-0.9,0-1.7,0.2-2.5,0.4s-1.5,0.6-2.1,1.1
		s-1.1,1-1.5,1.7s-0.6,1.5-0.6,2.4c0,1,0.2,1.8,0.5,2.5s0.8,1.2,1.4,1.8c0.6,0.6,1.3,1,2.1,1.5s1.7,1,2.6,1.7c0.4,0.3,0.8,0.6,1,0.8
		c0.3,0.3,0.4,0.6,0.4,1c0,0.5-0.1,0.8-0.4,1.1c-0.3,0.2-0.6,0.4-0.9,0.4c-0.1,0-0.1,0-0.2,0c-0.3,0-0.6-0.1-0.8-0.2
		c-0.3-0.2-0.6-0.5-0.8-0.7s-0.4-0.5-0.5-0.8s-0.2-0.4-0.1-0.4L167.2,231.2z"/>
	<path class="st0" d="M190.5,240.3V211h18.9v29.3H190.5z M191.7,227.8c0,1.2,0.2,2.3,0.6,3.3c0.4,1,0.9,1.9,1.5,2.6s1.4,1.3,2.4,1.7
		s2.1,0.6,3.3,0.6l0,0c0.8,0,1.6-0.1,2.3-0.3s1.4-0.5,2-0.9s1.2-0.8,1.7-1.2c0.5-0.5,0.9-1,1.3-1.5v-7.3h-6.7v4h2.2v1
		c-0.2,0.4-0.5,0.7-0.9,0.9s-0.9,0.3-1.5,0.3h-0.1c-0.5,0-0.9-0.1-1.3-0.3c-0.4-0.2-0.7-0.4-1-0.7s-0.5-0.7-0.7-1.1
		c-0.2-0.4-0.3-0.9-0.3-1.4v-4.1c0-1,0.3-1.9,0.8-2.5s1.3-0.9,2.2-0.9c0.5,0,0.9,0.1,1.2,0.2c0.3,0.1,0.6,0.4,0.8,0.6
		c0.2,0.2,0.4,0.5,0.5,0.7s0.2,0.5,0.3,0.7l3.9-2.6c-0.2-0.3-0.4-0.7-0.6-1.2s-0.6-1-1.1-1.5s-1.1-1-1.9-1.3s-1.8-0.6-3.1-0.7l0,0
		c-1.3,0-2.4,0.2-3.4,0.7s-1.8,1.1-2.4,1.8c-0.7,0.8-1.1,1.6-1.5,2.6s-0.5,2.1-0.5,3.2V227.8L191.7,227.8z"/>
	<path class="st0" d="M209.2,240.3V211h18.6v29.3H209.2z M210.9,227.7c0,1.1,0.2,2.2,0.5,3.2s0.8,1.9,1.6,2.7s1.7,1.4,2.6,1.8
		c0.9,0.4,2,0.6,3.1,0.6l0,0c1.1,0,2.1-0.2,3.1-0.6s1.9-1.1,2.6-1.9c0.7-0.8,1.3-1.7,1.6-2.7s0.5-2.1,0.5-3.1v-4.9
		c0-0.9-0.2-1.9-0.5-2.8c-0.3-0.9-0.8-1.7-1.5-2.4c-0.8-0.8-1.6-1.4-2.6-1.9s-2-0.6-3.1-0.6l0,0c-1.1,0-2.1,0.2-3.1,0.6
		c-1,0.4-1.8,1-2.6,1.9c-0.7,0.7-1.2,1.5-1.5,2.4s-0.5,1.8-0.5,2.7v5H210.9z"/>
	<path class="st0" d="M227.6,240.3V211h18.6v29.3H227.6z M229.3,227.7c0,1.1,0.2,2.2,0.5,3.2s0.8,1.9,1.6,2.7s1.7,1.4,2.6,1.8
		c0.9,0.4,2,0.6,3.1,0.6l0,0c1.1,0,2.1-0.2,3.1-0.6s1.9-1.1,2.6-1.9c0.7-0.8,1.3-1.7,1.6-2.7s0.5-2.1,0.5-3.1v-4.9
		c0-0.9-0.2-1.9-0.5-2.8c-0.3-0.9-0.8-1.7-1.5-2.4c-0.8-0.8-1.6-1.4-2.6-1.9s-2-0.6-3.1-0.6l0,0c-1.1,0-2.1,0.2-3.1,0.6
		c-1,0.4-1.8,1-2.6,1.9c-0.7,0.7-1.2,1.5-1.5,2.4s-0.5,1.8-0.5,2.7v5H229.3z"/>
	<path class="st0" d="M246,240.3V211h18.4v29.3H246z M248,236h4.2h0.6c1.7,0,3.1-0.3,4.3-0.8c1.2-0.5,2.1-1.3,2.9-2.3
		s1.2-2.1,1.6-3.3c0.3-1.3,0.5-2.6,0.5-4c0-1.5-0.2-2.9-0.6-4.1c-0.4-1.3-1-2.4-1.8-3.3s-1.8-1.7-3.1-2.2c-1.2-0.5-2.7-0.8-4.3-0.8
		h-4.2V236H248L248,236z"/>
	<path class="st0" d="M264.1,240.3V211h17.1v29.3H264.1z M265.6,231.2c0.2,0.7,0.5,1.4,0.9,2s0.9,1.1,1.5,1.5s1.3,0.7,2,1
		s1.5,0.3,2.4,0.3c1.1,0,2.1-0.1,2.9-0.4s1.6-0.6,2.2-1s1.1-1,1.4-1.5s0.5-1.2,0.6-1.9v-0.4c0-1.1-0.2-2-0.6-2.8s-0.9-1.5-1.5-2.1
		s-1.3-1.2-2.1-1.6c-0.8-0.4-1.6-1-2.5-1.5c-0.6-0.4-1.1-0.8-1.4-1.1s-0.3-0.6-0.3-0.9c0-0.5,0.2-0.8,0.5-1s0.6-0.3,1-0.3
		s0.7,0.1,0.9,0.2c0.2,0.1,0.5,0.3,0.7,0.5s0.3,0.4,0.5,0.7s0.2,0.5,0.2,0.7l4.1-1.6c-0.1-0.6-0.3-1.1-0.6-1.7
		c-0.3-0.6-0.7-1.1-1.2-1.5s-1.2-0.8-2-1.1s-1.7-0.4-2.7-0.4c-0.9,0-1.7,0.2-2.5,0.4s-1.5,0.6-2.1,1.1s-1.1,1-1.5,1.7
		s-0.6,1.5-0.6,2.4c0,1,0.2,1.8,0.5,2.5s0.8,1.2,1.4,1.8s1.3,1,2.1,1.5s1.7,1,2.6,1.7c0.4,0.3,0.8,0.6,1,0.8c0.3,0.3,0.4,0.6,0.4,1
		c0,0.5-0.1,0.8-0.4,1.1c-0.3,0.2-0.6,0.4-0.9,0.4c-0.1,0-0.1,0-0.2,0c-0.3,0-0.6-0.1-0.8-0.2c-0.3-0.2-0.6-0.5-0.8-0.7
		s-0.4-0.5-0.5-0.8s-0.2-0.4-0.1-0.4L265.6,231.2z"/>
</g>
<g class="st1">
	<path class="st0" d="M44,269v-29.3h15.4V269H44z M45.4,264.6h4.7v-8.1H56v-4.7h-5.9v-3.4h8.1v-4.7H45.4V264.6z"/>
	<path class="st0" d="M59.2,269v-29.3h16.6V269H59.2z M60.9,264.6h4.7v-6.8h0.1l2.8,6.8h5.4l-4.2-8.3c0.2,0,0.6-0.1,1-0.4
		s0.9-0.6,1.3-1.1s0.8-1.1,1.1-1.8c0.3-0.7,0.5-1.6,0.5-2.5s-0.1-1.7-0.3-2.6s-0.5-1.5-1-2.1s-1.1-1.1-1.9-1.5s-1.8-0.5-3-0.5l0,0
		h-6.3v20.8H60.9z"/>
	<path class="st0" d="M75.4,269v-29.3H94V269H75.4z M77.1,256.3c0,1.1,0.2,2.2,0.5,3.2s0.8,1.9,1.6,2.7c0.8,0.8,1.7,1.4,2.6,1.8
		c1,0.4,2,0.6,3.1,0.6l0,0c1.1,0,2.1-0.2,3.1-0.6s1.9-1.1,2.6-1.9s1.3-1.7,1.6-2.7c0.3-1,0.5-2.1,0.5-3.1v-4.9
		c0-0.9-0.2-1.9-0.5-2.8c-0.3-0.9-0.8-1.7-1.5-2.4c-0.8-0.8-1.6-1.4-2.6-1.9c-1-0.4-2-0.6-3.1-0.6l0,0c-1.1,0-2.1,0.2-3.1,0.6
		s-1.8,1-2.6,1.9c-0.7,0.7-1.2,1.5-1.5,2.4c-0.4,0.9-0.5,1.8-0.5,2.7v5H77.1z"/>
	<path class="st0" d="M93.8,269v-29.3h22.5V269H93.8z M96.1,264.6h5v-7.5l2.6,7.5h3l2.5-7.3v7.3h5v-20.8h-4.7l-4.4,12.1l-4.3-12.1
		H96v20.8H96.1z"/>
</g>
<g class="st1">
	<path class="st2" d="M147.2,258.9v4.7c0,0.2-0.1,0.3-0.3,0.4c-0.1,0-0.1,0-0.2,0c-0.1,0-0.2,0-0.3-0.1l-1.2-1.2
		c-1.1,1.3-2.5,2.3-4.3,3s-3.7,1.1-5.8,1.1s-4-0.4-5.8-1.1s-3.2-1.8-4.3-3l-1.2,1.2c-0.1,0.1-0.2,0.1-0.3,0.1c0,0-0.1,0-0.2,0
		c-0.2-0.1-0.3-0.2-0.3-0.4v-4.7c0-0.1,0-0.2,0.1-0.3c0.1-0.1,0.2-0.1,0.3-0.1h4.7c0.2,0,0.3,0.1,0.4,0.3c0.1,0.2,0,0.3-0.1,0.5
		l-1.3,1.3c0.6,0.8,1.4,1.5,2.5,2.1s2.3,0.9,3.6,1.1v-8.7h-2.6c-0.2,0-0.4-0.1-0.6-0.3c-0.2-0.2-0.3-0.4-0.3-0.6v-1.7
		c0-0.2,0.1-0.4,0.3-0.6c0.2-0.2,0.4-0.3,0.6-0.3h2.6v-2.2c-0.5-0.3-0.9-0.7-1.2-1.2s-0.5-1.1-0.5-1.7c0-0.9,0.3-1.8,1-2.4
		c0.7-0.7,1.5-1,2.4-1s1.8,0.3,2.4,1c0.7,0.7,1,1.5,1,2.4c0,0.6-0.2,1.2-0.5,1.7s-0.7,0.9-1.2,1.2v2.2h2.6c0.2,0,0.4,0.1,0.6,0.3
		c0.2,0.2,0.3,0.4,0.3,0.6v1.7c0,0.2-0.1,0.4-0.3,0.6c-0.2,0.2-0.4,0.3-0.6,0.3h-2.6v8.7c1.3-0.2,2.5-0.5,3.6-1.1s1.9-1.2,2.5-2.1
		l-1.3-1.3c-0.1-0.1-0.2-0.3-0.1-0.5c0.1-0.2,0.2-0.3,0.4-0.3h4.7c0.1,0,0.2,0,0.3,0.1C147.1,258.7,147.2,258.8,147.2,258.9z
		 M135.8,247.1c0.2-0.2,0.3-0.4,0.3-0.6s-0.1-0.4-0.3-0.6c-0.2-0.2-0.4-0.3-0.6-0.3c-0.2,0-0.4,0.1-0.6,0.3
		c-0.2,0.2-0.3,0.4-0.3,0.6s0.1,0.4,0.3,0.6c0.2,0.2,0.4,0.3,0.6,0.3C135.4,247.3,135.6,247.3,135.8,247.1z"/>
</g>
<g class="st1">
	<path class="st0" d="M153,269v-29.3h18.6V269H153z M154.7,264.6h5v-10.3l5.6,10.3h4.8v-20.8h-5V254l-5.6-10.2h-4.8V264.6z"/>
	<path class="st0" d="M171.3,269v-29.3h16.4V269H171.3z M173.1,264.6h12.8v-4.7h-8.1v-3.4h5.9v-4.7h-5.9v-3.4h8.1v-4.7h-12.8V264.6z
		"/>
	<path class="st0" d="M187.3,269v-29.3H215V269H187.3z M189.1,243.8l5.3,20.8h4.5l2.2-8.8l1.9,8.8h4.2l5.9-20.8h-5.8l-2.2,9.4
		l-2.2-9.4h-4l-2.2,9.4l-2.2-9.4H189.1z"/>
	<path class="st0" d="M221.7,269v-29.3H238V269H221.7z M223.5,264.6h12.8v-4.7h-8.1v-3.4h5.9v-4.7h-5.9v-3.4h8.1v-4.7h-12.8V264.6z"
		/>
	<path class="st0" d="M237.7,269v-29.3h18.6V269H237.7z M239.3,264.6h5v-10.3l5.6,10.3h4.8v-20.8h-5V254l-5.6-10.2h-4.8V264.6z"/>
</g>
<g class="st1">
	<path class="st0" d="M256,269v-29.3h18.9V269H256z M257.2,256.4c0,1.2,0.2,2.3,0.6,3.3s0.9,1.9,1.5,2.6s1.4,1.3,2.4,1.7
		c1,0.4,2.1,0.6,3.3,0.6l0,0c0.8,0,1.6-0.1,2.3-0.3s1.4-0.5,2-0.9s1.2-0.8,1.7-1.2c0.5-0.5,0.9-1,1.3-1.5v-7.3h-6.7v4h2.2v1
		c-0.2,0.4-0.5,0.7-0.9,0.9c-0.4,0.2-0.9,0.3-1.5,0.3h-0.1c-0.5,0-0.9-0.1-1.3-0.3s-0.7-0.4-1-0.7s-0.5-0.7-0.7-1.1
		s-0.3-0.9-0.3-1.4V252c0-1,0.3-1.9,0.8-2.5s1.3-0.9,2.2-0.9c0.5,0,0.9,0.1,1.2,0.2c0.3,0.2,0.6,0.4,0.8,0.6
		c0.2,0.2,0.4,0.5,0.5,0.7c0.1,0.3,0.2,0.5,0.3,0.7l3.9-2.6c-0.2-0.3-0.4-0.7-0.6-1.2s-0.6-1-1.1-1.5s-1.1-1-1.9-1.3
		c-0.8-0.4-1.8-0.6-3.1-0.7l0,0c-1.3,0-2.4,0.2-3.4,0.7s-1.8,1.1-2.4,1.8c-0.7,0.8-1.1,1.6-1.5,2.6s-0.5,2.1-0.5,3.2L257.2,256.4
		L257.2,256.4z"/>
	<path class="st0" d="M274.7,269v-29.3h13.7V269H274.7z M276.8,264.6h9.8v-4.7h-5.1v-16.1h-4.7L276.8,264.6L276.8,264.6z"/>
</g>
<g class="st1">
	<path class="st0" d="M287.4,269v-29.3h22.2V269H287.4z M288.9,264.6h5.4l1.8-5.5h4.1l1.9,5.5h5.3l-6.1-20.8H295L288.9,264.6z"/>
	<path class="st0" d="M308.4,269v-29.3H327V269H308.4z M310,264.6h5v-10.3l5.6,10.3h4.8v-20.8h-5V254l-5.6-10.2H310V264.6z"/>
	<path class="st0" d="M326.6,269v-29.3H345V269H326.6z M328.7,264.6h4.2h0.6c1.7,0,3.1-0.3,4.3-0.8c1.2-0.6,2.1-1.3,2.9-2.3
		s1.2-2.1,1.6-3.3s0.5-2.6,0.5-4c0-1.5-0.2-2.9-0.6-4.1c-0.4-1.3-1-2.4-1.8-3.3s-1.8-1.7-3.1-2.2c-1.2-0.5-2.7-0.8-4.3-0.8h-4.2
		v20.8H328.7z"/>
</g>
<rect x="60.3" y="211" class="st0" width="7.6" height="29.3"/>
<rect x="-96" y="211" class="st0" width="3.5" height="29.3"/>
<rect x="182.7" y="211" class="st0" width="8" height="29.3"/>
<rect x="215" y="240.3" class="st0" width="7.7" height="28.7"/>
<rect x="114.3" y="240.3" class="st0" width="5.6" height="28.7"/>
<rect x="37.6" y="240.3" class="st0" width="6.5" height="28.7"/>
<rect x="280.6" y="212" class="st0" width="4.9" height="28.7"/>
<rect x="344.8" y="239.7" class="st0" width="3.2" height="29.7"/>
<rect x="149.6" y="240.3" class="st0" width="5.8" height="28.7"/>
</svg>
