<?xml version="1.0" encoding="utf-8"?>
<!-- Generator: Adobe Illustrator 19.1.0, SVG Export Plug-In . SVG Version: 6.00 Build 0)  -->
<svg version="1.1" id="Layer_1" xmlns="http://www.w3.org/2000/svg" xmlns:xlink="http://www.w3.org/1999/xlink" x="0px" y="0px"
	 viewBox="0 0 1536.1 181.8" style="enable-background:new 0 0 1536.1 181.8;" xml:space="preserve">
<style type="text/css">
	.st0{fill:#7EAF31;}
	.st1{fill:#00AEEF;}
</style>
<g>
	<path class="st0" d="M5.7,91V0h57.4v91H5.7z M9.5,77.5h14.6V52.5h17.3v25.1H56V12.8H41.4v25.1H24.1V12.8H9.5V77.5z"/>
	<path class="st0" d="M62.1,91V0h69.1v91H62.1z M66.7,77.5h16.7l5.7-17h12.6l5.8,17h16.6l-18.9-64.7H85.7L66.7,77.5z"/>
	<path class="st0" d="M127.2,91V0h57.9v91H127.2z M132.3,77.5h15.5V45.7l17.4,31.9H180V12.8h-15.5v31.8l-17.3-31.8h-14.9V77.5z"/>
	<path class="st0" d="M183.9,91V0h57.1v91H183.9z M190.3,77.5h13.1h1.9c5.3,0,9.7-0.9,13.4-2.6c3.6-1.7,6.6-4.1,8.9-7.1
		s3.9-6.4,4.9-10.3c1-3.9,1.5-8,1.5-12.4c0-4.6-0.6-8.9-1.9-12.8s-3.2-7.4-5.7-10.3s-5.7-5.1-9.5-6.8c-3.8-1.7-8.2-2.5-13.3-2.5
		h-13.1V77.5z"/>
	<path class="st0" d="M240.3,91V0h69.9v91H240.3z M247.4,77.5h15.5V54.2l8.1,23.3h9.4l7.9-22.6v22.6h15.5V12.8h-14.6l-13.5,37.6
		l-13.4-37.6h-14.9V77.5z"/>
	<path class="st0" d="M309.9,91V0H379v91H309.9z M314.5,77.5h16.7l5.7-17h12.6l5.8,17h16.6L353,12.8h-19.5L314.5,77.5z"/>
	<path class="st0" d="M377.7,91V0h57.1v91H377.7z M384.2,77.5h13.1h1.9c5.3,0,9.7-0.9,13.4-2.6c3.6-1.7,6.6-4.1,8.9-7.1
		s3.9-6.4,4.9-10.3c1-3.9,1.5-8,1.5-12.4c0-4.6-0.6-8.9-1.9-12.8s-3.2-7.4-5.7-10.3s-5.7-5.1-9.5-6.8c-3.8-1.7-8.2-2.5-13.3-2.5
		h-13.1V77.5z"/>
	<path class="st0" d="M434.2,91V0H485v91H434.2z M439.8,77.5h39.7V62.9h-25.1V52.5h18.4V37.9h-18.4V27.4h25.1V12.8h-39.7V77.5z"/>
	<path class="st0" d="M508.5,91V0h58.1v91H508.5z M512.9,52c0.2,3.4,0.7,6.6,1.6,9.7c0.9,3.1,2.3,5.8,4.1,8.2s4.3,4.2,7.3,5.6
		c3,1.4,6.7,2.1,11.1,2.1h0.1c3.9,0,7.3-0.6,9.9-1.7c2.7-1.1,4.9-2.5,6.7-4c1.7-1.6,3.1-3.1,4.1-4.8c1-1.6,1.7-3,2.2-4l-12.6-7
		c-0.9,2-2.1,3.8-3.8,5.2c-1.5,1.3-3.3,2-5.4,2c-0.3,0-0.5,0-0.8,0c-2.9-0.2-5.3-1.4-7.1-3.6c-1.8-2.2-2.7-4.9-2.7-8V38.9
		c0-3.2,0.9-5.8,2.7-8s4.1-3.3,7.1-3.5c0.1,0,0.2,0,0.3,0c1.1,0,2.1,0.2,3.1,0.7c1.1,0.5,2.1,1.2,3,2.1c0.9,0.9,1.6,1.9,2.2,2.9
		c0.6,1.1,1.1,2.2,1.4,3.2l12.6-7c-0.7-2-1.5-4-2.7-5.9s-2.6-3.7-4.4-5.3c-1.8-1.6-4-2.9-6.6-3.9c-2.6-1-5.6-1.5-9.1-1.5h-0.1
		c-4,0-7.5,0.7-10.5,2.2c-3,1.5-5.5,3.4-7.5,5.9c-2,2.4-3.5,5.2-4.5,8.3c-1,3.1-1.6,6.3-1.6,9.5V52z"/>
	<path class="st0" d="M563,91V0h69.1v91H563z M567.6,77.5h16.7l5.7-17h12.6l5.8,17h16.6l-18.9-64.7h-19.5L567.6,77.5z"/>
	<path class="st0" d="M628.1,91V0H686v91H628.1z M633.2,77.5h15.5V45.7l17.4,31.9h14.8V12.8h-15.5v31.8l-17.3-31.8h-14.9V77.5z"/>
	<path class="st0" d="M684.8,91V0h60.9v91H684.8z M688.4,12.8l19.9,64.7h13l20.8-64.7h-17.2L715.3,42l-9.8-29.2H688.4z"/>
	<path class="st0" d="M741.3,91V0h69.1v91H741.3z M745.8,77.5h16.7l5.7-17h12.6l5.8,17h16.6l-18.9-64.7h-19.5L745.8,77.5z"/>
	<path class="st0" d="M809.1,91V0h53.1v91H809.1z M813.8,62.7c0.6,2.3,1.5,4.4,2.8,6.2c1.3,1.8,2.9,3.4,4.8,4.7
		c1.9,1.3,3.9,2.3,6.2,3c2.3,0.7,4.7,1,7.3,1c3.4,0,6.4-0.4,9-1.2c2.7-0.8,4.9-1.9,6.8-3.2s3.4-3,4.4-4.8c1.1-1.8,1.7-3.8,1.8-5.8
		v-1.2c0-3.3-0.6-6.2-1.7-8.6c-1.2-2.4-2.7-4.6-4.6-6.5c-1.9-1.9-4.1-3.6-6.6-5.1s-5-3-7.7-4.5c-1.9-1.4-3.3-2.5-4.2-3.3
		c-0.9-0.8-1.3-1.8-1.3-2.9c0-1.4,0.5-2.5,1.4-3.2c0.9-0.7,2-1.1,3.2-1.1c1.1,0,2.1,0.2,2.9,0.7s1.6,1,2.2,1.7
		c0.6,0.7,1.1,1.4,1.4,2.2s0.6,1.5,0.8,2.1l12.8-5.1c-0.3-1.7-0.9-3.5-1.8-5.2c-0.9-1.8-2.2-3.3-3.9-4.7c-1.7-1.4-3.7-2.5-6.1-3.4
		s-5.2-1.4-8.4-1.4c-2.7,0.1-5.2,0.5-7.7,1.2c-2.5,0.8-4.7,1.9-6.6,3.3c-1.9,1.4-3.4,3.2-4.6,5.4s-1.7,4.6-1.7,7.5
		c0,3.1,0.5,5.6,1.6,7.7c1.1,2,2.6,3.8,4.4,5.5c1.9,1.6,4.1,3.2,6.6,4.7c2.5,1.5,5.3,3.2,8.2,5.2c1.3,0.9,2.4,1.8,3.1,2.6
		c0.8,0.9,1.2,1.9,1.2,3c0,1.5-0.5,2.6-1.4,3.3c-1,0.8-1.9,1.2-2.9,1.3c-0.2,0-0.5,0-0.7,0c-0.9,0-1.8-0.3-2.5-0.8
		c-1-0.7-1.9-1.4-2.6-2.3c-0.7-0.8-1.2-1.6-1.6-2.4c-0.4-0.8-0.5-1.2-0.4-1.2L813.8,62.7z"/>
	<path class="st0" d="M886.3,91V0h58.9v91H886.3z M890.1,52c0.1,3.7,0.7,7.1,1.8,10.3c1.1,3.1,2.7,5.8,4.7,8.1c2,2.3,4.5,4,7.4,5.3
		c3,1.3,6.4,1.9,10.3,1.9h0.1c2.5,0,4.9-0.3,7.2-1c2.3-0.7,4.3-1.6,6.2-2.7s3.6-2.4,5.1-3.9s2.9-3,4-4.6V42.9H916v12.5h6.9v3.2
		c-0.7,1.2-1.6,2.1-2.8,2.8c-1.2,0.7-2.7,1.1-4.5,1.1c-0.1,0-0.3,0-0.4,0c-1.4,0-2.8-0.3-4-0.9c-1.2-0.6-2.3-1.4-3.2-2.3
		s-1.6-2.1-2.1-3.5s-0.8-2.8-0.8-4.4V38.9c0-3.2,0.9-5.8,2.6-7.7c1.7-1.9,4-2.9,6.9-2.9c1.5,0,2.7,0.2,3.7,0.7s1.8,1.1,2.5,1.8
		s1.2,1.4,1.6,2.3c0.4,0.8,0.7,1.5,1,2.2l12-7.9c-0.6-0.9-1.2-2.1-2-3.7c-0.8-1.6-1.9-3.1-3.4-4.7c-1.5-1.6-3.4-3-5.9-4.1
		c-2.5-1.2-5.7-1.9-9.7-2h-0.1c-3.9,0-7.4,0.7-10.4,2.1c-3,1.4-5.5,3.3-7.6,5.6c-2,2.3-3.6,5.1-4.6,8.2c-1,3.1-1.6,6.5-1.6,9.9V52z"
		/>
	<path class="st0" d="M944.5,91V0h57.9v91H944.5z M949.6,51.8c0.1,3.5,0.6,6.8,1.5,9.8c0.9,3.1,2.6,5.8,4.8,8.3
		c2.4,2.5,5.2,4.4,8.2,5.7c3,1.3,6.3,2,9.6,2h0.1c3.4,0,6.7-0.7,9.7-2c3-1.3,5.8-3.3,8.1-5.8c2.3-2.4,4-5.3,4.9-8.5s1.4-6.4,1.4-9.5
		V36.6c-0.1-2.9-0.6-5.8-1.6-8.6c-1-2.8-2.6-5.3-4.7-7.5c-2.4-2.5-5.1-4.4-8.1-5.8c-3-1.3-6.3-2-9.7-2h-0.1c-3.4,0-6.6,0.7-9.7,2
		c-3,1.3-5.7,3.3-8.2,5.8c-2,2.2-3.6,4.7-4.7,7.6s-1.6,5.7-1.6,8.5V51.8z"/>
	<path class="st0" d="M1001.4,91V0h57.9v91H1001.4z M1006.5,51.8c0.1,3.5,0.6,6.8,1.5,9.8c0.9,3.1,2.6,5.8,4.8,8.3
		c2.4,2.5,5.2,4.4,8.2,5.7c3,1.3,6.3,2,9.6,2h0.1c3.4,0,6.7-0.7,9.7-2c3-1.3,5.8-3.3,8.1-5.8c2.3-2.4,4-5.3,4.9-8.5s1.4-6.4,1.4-9.5
		V36.6c-0.1-2.9-0.6-5.8-1.6-8.6c-1-2.8-2.6-5.3-4.7-7.5c-2.4-2.5-5.1-4.4-8.1-5.8c-3-1.3-6.3-2-9.7-2h-0.1c-3.4,0-6.6,0.7-9.7,2
		c-3,1.3-5.7,3.3-8.2,5.8c-2,2.2-3.6,4.7-4.7,7.6s-1.6,5.7-1.6,8.5V51.8z"/>
	<path class="st0" d="M1058.2,91V0h57.1v91H1058.2z M1064.7,77.5h13.1h1.9c5.3,0,9.7-0.9,13.4-2.6c3.6-1.7,6.6-4.1,8.9-7.1
		s3.9-6.4,4.9-10.3c1-3.9,1.5-8,1.5-12.4c0-4.6-0.6-8.9-1.9-12.8s-3.2-7.4-5.7-10.3s-5.7-5.1-9.5-6.8c-3.8-1.7-8.2-2.5-13.3-2.5
		h-13.1V77.5z"/>
	<path class="st0" d="M1114.7,91V0h53.1v91H1114.7z M1119.4,62.7c0.6,2.3,1.5,4.4,2.8,6.2c1.3,1.8,2.9,3.4,4.8,4.7
		c1.9,1.3,3.9,2.3,6.2,3c2.3,0.7,4.7,1,7.3,1c3.4,0,6.4-0.4,9-1.2c2.7-0.8,4.9-1.9,6.8-3.2s3.4-3,4.4-4.8c1.1-1.8,1.7-3.8,1.8-5.8
		v-1.2c0-3.3-0.6-6.2-1.7-8.6c-1.2-2.4-2.7-4.6-4.6-6.5c-1.9-1.9-4.1-3.6-6.6-5.1s-5-3-7.7-4.5c-1.9-1.4-3.3-2.5-4.2-3.3
		c-0.9-0.8-1.3-1.8-1.3-2.9c0-1.4,0.5-2.5,1.4-3.2c0.9-0.7,2-1.1,3.2-1.1c1.1,0,2.1,0.2,2.9,0.7s1.6,1,2.2,1.7
		c0.6,0.7,1.1,1.4,1.4,2.2s0.6,1.5,0.8,2.1l12.8-5.1c-0.3-1.7-0.9-3.5-1.8-5.2c-0.9-1.8-2.2-3.3-3.9-4.7c-1.7-1.4-3.7-2.5-6.1-3.4
		s-5.2-1.4-8.4-1.4c-2.7,0.1-5.2,0.5-7.7,1.2c-2.5,0.8-4.7,1.9-6.6,3.3c-1.9,1.4-3.4,3.2-4.6,5.4s-1.7,4.6-1.7,7.5
		c0,3.1,0.5,5.6,1.6,7.7c1.1,2,2.6,3.8,4.4,5.5c1.9,1.6,4.1,3.2,6.6,4.7c2.5,1.5,5.3,3.2,8.2,5.2c1.3,0.9,2.4,1.8,3.1,2.6
		c0.8,0.9,1.2,1.9,1.2,3c0,1.5-0.5,2.6-1.4,3.3c-1,0.8-1.9,1.2-2.9,1.3c-0.2,0-0.5,0-0.7,0c-0.9,0-1.8-0.3-2.5-0.8
		c-1-0.7-1.9-1.4-2.6-2.3c-0.7-0.8-1.2-1.6-1.6-2.4c-0.4-0.8-0.5-1.2-0.4-1.2L1119.4,62.7z"/>
</g>
<g>
	<path class="st1" d="M581,181.8v-91h47.8v91H581z M585.3,168.4h14.6v-25.1h18.4v-14.6h-18.4v-10.5H625v-14.6h-39.7V168.4z"/>
	<path class="st1" d="M628.1,181.8v-91h51.7v91H628.1z M633.7,168.4h14.6v-21.1h0.2l8.7,21.1H674l-13.1-25.8c0.8,0,1.8-0.4,3.1-1.2
		s2.6-2,4-3.5c1.3-1.5,2.4-3.4,3.4-5.7c0.9-2.3,1.4-4.8,1.4-7.7c0-2.8-0.3-5.4-1-8c-0.6-2.5-1.7-4.7-3.2-6.6
		c-1.5-1.9-3.4-3.4-5.9-4.5s-5.6-1.7-9.3-1.7h-0.1h-19.7V168.4z"/>
	<path class="st1" d="M678.7,181.8v-91h57.9v91H678.7z M683.9,142.6c0.1,3.5,0.6,6.8,1.5,9.8c0.9,3.1,2.6,5.8,4.8,8.3
		c2.4,2.5,5.2,4.4,8.2,5.7c3,1.3,6.3,2,9.6,2h0.1c3.4,0,6.7-0.7,9.7-2c3-1.3,5.8-3.3,8.1-5.8c2.3-2.4,4-5.3,4.9-8.5s1.4-6.4,1.4-9.5
		v-15.2c-0.1-2.9-0.6-5.8-1.6-8.6c-1-2.8-2.6-5.3-4.7-7.5c-2.4-2.5-5.1-4.4-8.1-5.8c-3-1.3-6.3-2-9.7-2H708c-3.4,0-6.6,0.7-9.7,2
		c-3,1.3-5.7,3.3-8.2,5.8c-2,2.2-3.6,4.7-4.7,7.6s-1.6,5.7-1.6,8.5V142.6z"/>
	<path class="st1" d="M735.6,181.8v-91h69.9v91H735.6z M742.7,168.4h15.5V145l8.1,23.3h9.4l7.9-22.6v22.6h15.5v-64.7h-14.6
		l-13.5,37.6l-13.4-37.6h-14.9V168.4z"/>
	<path class="st1" d="M915.8,168.4c0,0.6-0.4,1.2-1,1.5c-0.2,0-0.4,0.1-0.6,0.1c-0.4,0-0.8-0.1-1.1-0.4l-4.5-4.5
		c-7.6,9.2-21.3,15.1-36.3,15.1s-28.7-5.9-36.3-15.1l-4.5,4.5c-0.3,0.3-0.7,0.4-1.1,0.4c-0.2,0-0.4,0-0.6-0.1c-0.6-0.2-1-0.8-1-1.5
		v-17.1c0-0.9,0.7-1.6,1.6-1.6h17.1c0.6,0,1.2,0.4,1.5,1c0.2,0.6,0.1,1.2-0.3,1.7l-4.9,4.9c4.4,5.9,12.8,10.1,22.4,11.5v-31.4h-9.3
		c-1.7,0-3.1-1.4-3.1-3.1V128c0-1.7,1.4-3.1,3.1-3.1h9.3V117c-3.7-2.1-6.2-6.1-6.2-10.7c0-6.8,5.6-12.4,12.4-12.4
		s12.4,5.6,12.4,12.4c0,4.6-2.5,8.6-6.2,10.7v7.9h9.3c1.7,0,3.1,1.4,3.1,3.1v6.2c0,1.7-1.4,3.1-3.1,3.1h-9.3v31.4
		c9.6-1.3,18-5.6,22.4-11.5l-4.9-4.9c-0.4-0.5-0.6-1.1-0.3-1.7c0.2-0.6,0.8-1,1.5-1h17.1c0.9,0,1.6,0.7,1.6,1.6V168.4z M872.3,103.1
		c-1.7,0-3.1,1.4-3.1,3.1s1.4,3.1,3.1,3.1s3.1-1.4,3.1-3.1S874,103.1,872.3,103.1z"/>
	<path class="st1" d="M939.8,181.8v-91h57.9v91H939.8z M945,168.4h15.5v-31.9l17.4,31.9h14.8v-64.7h-15.5v31.8l-17.3-31.8H945V168.4
		z"/>
	<path class="st1" d="M996.5,181.8v-91h50.8v91H996.5z M1002.1,168.4h39.7v-14.6h-25.1v-10.5h18.4v-14.6h-18.4v-10.5h25.1v-14.6
		h-39.7V168.4z"/>
	<path class="st1" d="M1046.2,181.8v-91h86.1v91H1046.2z M1051.9,103.6l16.6,64.7h14l6.8-27.3l5.9,27.3h13.1l18.4-64.7h-18.1
		l-6.8,29.1l-6.8-29.1h-12.3l-6.8,29.1l-6.9-29.1H1051.9z"/>
	<path class="st1" d="M1149.2,181.8v-91h50.8v91H1149.2z M1154.8,168.4h39.7v-14.6h-25.1v-10.5h18.4v-14.6h-18.4v-10.5h25.1v-14.6
		h-39.7V168.4z"/>
	<path class="st1" d="M1198.9,181.8v-91h57.9v91H1198.9z M1204,168.4h15.5v-31.9l17.4,31.9h14.8v-64.7h-15.5v31.8l-17.3-31.8H1204
		V168.4z"/>
	<path class="st1" d="M1255.6,181.8v-91h58.9v91H1255.6z M1259.4,142.9c0.1,3.7,0.7,7.1,1.8,10.3c1.1,3.1,2.7,5.8,4.7,8.1
		c2,2.3,4.5,4,7.4,5.3c3,1.3,6.4,1.9,10.3,1.9h0.1c2.5,0,4.9-0.3,7.2-1c2.3-0.7,4.3-1.6,6.2-2.7s3.6-2.4,5.1-3.9s2.9-3,4-4.6v-22.6
		h-20.9v12.5h6.9v3.2c-0.7,1.2-1.6,2.1-2.8,2.8c-1.2,0.7-2.7,1.1-4.5,1.1c-0.1,0-0.3,0-0.4,0c-1.4,0-2.8-0.3-4-0.9
		c-1.2-0.6-2.3-1.4-3.2-2.3s-1.6-2.1-2.1-3.5s-0.8-2.8-0.8-4.4v-12.6c0-3.2,0.9-5.8,2.6-7.7c1.7-1.9,4-2.9,6.9-2.9
		c1.5,0,2.7,0.2,3.7,0.7s1.8,1.1,2.5,1.8s1.2,1.4,1.6,2.3c0.4,0.8,0.7,1.5,1,2.2l12-7.9c-0.6-0.9-1.2-2.1-2-3.7
		c-0.8-1.6-1.9-3.1-3.4-4.7c-1.5-1.6-3.4-3-5.9-4.1c-2.5-1.2-5.7-1.9-9.7-2h-0.1c-3.9,0-7.4,0.7-10.4,2.1c-3,1.4-5.5,3.3-7.6,5.6
		c-2,2.3-3.6,5.1-4.6,8.2c-1,3.1-1.6,6.5-1.6,9.9V142.9z"/>
	<path class="st1" d="M1313.8,181.8v-91h42.5v91H1313.8z M1320.3,168.4h30.5v-14.6h-15.9v-50.1h-14.6V168.4z"/>
	<path class="st1" d="M1355,181.8v-91h69.1v91H1355z M1359.6,168.4h16.7l5.7-17h12.6l5.8,17h16.6l-18.9-64.7h-19.5L1359.6,168.4z"/>
	<path class="st1" d="M1420.1,181.8v-91h57.9v91H1420.1z M1425.2,168.4h15.5v-31.9l17.4,31.9h14.8v-64.7h-15.5v31.8l-17.3-31.8
		h-14.9V168.4z"/>
	<path class="st1" d="M1476.8,181.8v-91h57.1v91H1476.8z M1483.2,168.4h13.1h1.9c5.3,0,9.7-0.9,13.4-2.6c3.6-1.7,6.6-4.1,8.9-7.1
		s3.9-6.4,4.9-10.3c1-3.9,1.5-8,1.5-12.4c0-4.6-0.6-8.9-1.9-12.8s-3.2-7.4-5.7-10.3s-5.7-5.1-9.5-6.8c-3.8-1.7-8.2-2.5-13.3-2.5
		h-13.1V168.4z"/>
</g>
<rect x="862.2" class="st0" width="24.1" height="91"/>
<rect x="805.3" y="90.8" class="st1" width="24" height="91"/>
<rect x="571.4" y="90.8" class="st1" width="9.6" height="91"/>
<rect x="1526.6" y="90.8" class="st1" width="9.6" height="91"/>
<rect x="1132.1" y="90.8" class="st1" width="18" height="91"/>
<rect x="915.7" y="90.8" class="st1" width="24.1" height="91"/>
<rect x="485" class="st0" width="23.5" height="91"/>
<rect class="st0" width="8" height="91"/>
</svg>
