<?xml version="1.0" encoding="utf-8"?>
<!-- Generator: Adobe Illustrator 19.1.0, SVG Export Plug-In . SVG Version: 6.00 Build 0)  -->
<svg version="1.1" id="Layer_1" xmlns="http://www.w3.org/2000/svg" xmlns:xlink="http://www.w3.org/1999/xlink" x="0px" y="0px"
	 viewBox="-282 211.6 74 59.4" style="enable-background:new -282 211.6 74 59.4;" xml:space="preserve">
<style type="text/css">
	.st0{fill:#F1F2F2;}
	.st1{enable-background:new    ;}
	.st2{fill:#EF4136;}
	.st3{fill:#414042;}
</style>
<rect x="-280.1" y="214.1" class="st0" width="71.1" height="54.3"/>
<g>
	<g class="st1">
		<path class="st2" d="M-282,271v-59.6h37.1V271H-282z M-280,219.7l12.1,21.2v21.2h9v-21.2l11.4-21.2h-10.7l-4.9,10l-5-10H-280z"/>
	</g>
	<g class="st1">
		<path class="st3" d="M-246.2,271v-59.6h38V271H-246.2z M-243.3,245.5c0.1,2.2,0.5,4.3,1,6.4c0.6,2,1.5,3.8,2.7,5.4
			c1.2,1.5,2.8,2.8,4.8,3.7c2,0.9,4.4,1.4,7.3,1.4h0.1c2.6,0,4.8-0.4,6.5-1.1c1.8-0.7,3.2-1.6,4.4-2.6s2-2.1,2.7-3.1
			c0.6-1.1,1.1-1.9,1.4-2.6l-8.3-4.6c-0.6,1.3-1.4,2.5-2.5,3.4c-1,0.9-2.2,1.3-3.6,1.3c-0.2,0-0.3,0-0.5,0c-1.9-0.1-3.5-0.9-4.7-2.4
			c-1.2-1.4-1.8-3.2-1.8-5.3v-8.5c0-2.1,0.6-3.8,1.7-5.2c1.2-1.4,2.7-2.2,4.7-2.3c0.1,0,0.1,0,0.2,0c0.7,0,1.4,0.2,2.1,0.5
			c0.7,0.3,1.4,0.8,1.9,1.4c0.6,0.6,1,1.2,1.4,1.9c0.4,0.7,0.7,1.4,0.9,2.1l8.3-4.6c-0.4-1.3-1-2.6-1.7-3.9s-1.7-2.4-2.9-3.5
			c-1.2-1-2.6-1.9-4.3-2.5c-1.7-0.7-3.7-1-6-1h-0.1c-2.6,0-4.9,0.5-6.9,1.5s-3.6,2.3-4.9,3.9c-1.3,1.6-2.3,3.4-3,5.4s-1,4.1-1.1,6.2
			v8.7H-243.3z"/>
	</g>
</g>
</svg>
