<?xml version="1.0" encoding="utf-8"?>
<!-- Generator: Adobe Illustrator 19.1.0, SVG Export Plug-In . SVG Version: 6.00 Build 0)  -->
<svg version="1.1" id="Layer_1" xmlns="http://www.w3.org/2000/svg" xmlns:xlink="http://www.w3.org/1999/xlink" x="0px" y="0px"
	 viewBox="0 0 445.8 57" style="enable-background:new 0 0 445.8 57;" xml:space="preserve">
<style type="text/css">
	.st0{fill:#58595B;}
	.st1{font-family:'Blackout-TwoAM';}
	.st2{font-size:28px;}
	.st3{fill:#EF4136;}
	.st4{font-family:'FontAwesome';}
	.st5{font-size:24px;}
</style>
<g>
	<path class="st0" d="M-0.1,28.9V-0.4h18.5v29.3H-0.1z M1.1,24.6h4.7v-8.1h5.6v8.1h4.7V3.7h-4.7v8.1H5.8V3.7H1.1V24.6z"/>
	<path class="st0" d="M18.1,28.9V-0.4h22.2v29.3H18.1z M19.5,24.6h5.4l1.8-5.5h4.1l1.9,5.5H38L31.9,3.7h-6.3L19.5,24.6z"/>
	<path class="st0" d="M39,28.9V-0.4h18.6v29.3H39z M40.6,24.6h5V14.3l5.6,10.3H56V3.7h-5v10.2L45.4,3.7h-4.8V24.6z"/>
	<path class="st0" d="M57.2,28.9V-0.4h18.4v29.3H57.2z M59.3,24.6h4.2h0.6c1.7,0,3.1-0.3,4.3-0.8s2.1-1.3,2.9-2.3s1.2-2.1,1.6-3.3
		c0.3-1.3,0.5-2.6,0.5-4c0-1.5-0.2-2.9-0.6-4.1c-0.4-1.3-1-2.4-1.8-3.3c-0.8-0.9-1.8-1.7-3.1-2.2c-1.2-0.5-2.7-0.8-4.3-0.8h-4.2
		V24.6z"/>
	<path class="st0" d="M75.4,28.9V-0.4h22.5v29.3H75.4z M77.7,24.6h5v-7.5l2.6,7.5h3l2.5-7.3v7.3h5V3.7h-4.7l-4.4,12.1L82.5,3.7h-4.8
		V24.6z"/>
	<path class="st0" d="M97.8,28.9V-0.4H120v29.3H97.8z M99.3,24.6h5.4l1.8-5.5h4.1l1.9,5.5h5.3l-6.1-20.8h-6.3L99.3,24.6z"/>
	<path class="st0" d="M119.6,28.9V-0.4H138v29.3H119.6z M121.7,24.6h4.2h0.6c1.7,0,3.1-0.3,4.3-0.8s2.1-1.3,2.9-2.3s1.2-2.1,1.6-3.3
		c0.3-1.3,0.5-2.6,0.5-4c0-1.5-0.2-2.9-0.6-4.1c-0.4-1.3-1-2.4-1.8-3.3c-0.8-0.9-1.8-1.7-3.1-2.2c-1.2-0.5-2.7-0.8-4.3-0.8h-4.2
		V24.6z"/>
	<path class="st0" d="M137.8,28.9V-0.4h16.4v29.3H137.8z M139.6,24.6h12.8v-4.7h-8.1v-3.4h5.9v-4.7h-5.9V8.4h8.1V3.7h-12.8V24.6z"/>
	<path class="st0" d="M161.7,28.9V-0.4h18.7v29.3H161.7z M163.1,16.4c0.1,1.1,0.2,2.1,0.5,3.1c0.3,1,0.7,1.9,1.3,2.6
		s1.4,1.4,2.4,1.8c1,0.4,2.2,0.7,3.6,0.7h0c1.3,0,2.3-0.2,3.2-0.5c0.9-0.4,1.6-0.8,2.1-1.3s1-1,1.3-1.5c0.3-0.5,0.5-1,0.7-1.3
		l-4.1-2.3c-0.3,0.7-0.7,1.2-1.2,1.7c-0.5,0.4-1.1,0.6-1.8,0.6c-0.1,0-0.2,0-0.2,0c-0.9-0.1-1.7-0.5-2.3-1.2
		c-0.6-0.7-0.9-1.6-0.9-2.6v-4.1c0-1,0.3-1.9,0.9-2.6c0.6-0.7,1.3-1.1,2.3-1.1c0,0,0.1,0,0.1,0c0.3,0,0.7,0.1,1,0.2
		c0.4,0.2,0.7,0.4,1,0.7s0.5,0.6,0.7,0.9s0.3,0.7,0.5,1l4.1-2.3c-0.2-0.6-0.5-1.3-0.9-1.9c-0.4-0.6-0.8-1.2-1.4-1.7
		c-0.6-0.5-1.3-0.9-2.1-1.2c-0.8-0.3-1.8-0.5-2.9-0.5h0c-1.3,0-2.4,0.2-3.4,0.7s-1.8,1.1-2.4,1.9C164.5,7.1,164,8,163.7,9
		c-0.3,1-0.5,2-0.5,3V16.4z"/>
	<path class="st0" d="M179.3,28.9V-0.4h22.2v29.3H179.3z M180.8,24.6h5.4l1.8-5.5h4.1l1.9,5.5h5.3l-6.1-20.8h-6.3L180.8,24.6z"/>
	<path class="st0" d="M200.2,28.9V-0.4h18.6v29.3H200.2z M201.9,24.6h5V14.3l5.6,10.3h4.8V3.7h-5v10.2l-5.6-10.2h-4.8V24.6z"/>
	<path class="st0" d="M218.5,28.9V-0.4h19.6v29.3H218.5z M219.6,3.7l6.4,20.8h4.2l6.7-20.8h-5.5l-3.1,9.4l-3.1-9.4H219.6z"/>
	<path class="st0" d="M236.7,28.9V-0.4H259v29.3H236.7z M238.2,24.6h5.4l1.8-5.5h4.1l1.9,5.5h5.3l-6.1-20.8h-6.3L238.2,24.6z"/>
	<path class="st0" d="M258.6,28.9V-0.4h17.1v29.3H258.6z M260.1,19.8c0.2,0.7,0.5,1.4,0.9,2s0.9,1.1,1.5,1.5s1.3,0.7,2,1
		s1.5,0.3,2.4,0.3c1.1,0,2.1-0.1,2.9-0.4s1.6-0.6,2.2-1s1.1-1,1.4-1.5s0.5-1.2,0.6-1.9v-0.4c0-1.1-0.2-2-0.6-2.8
		c-0.4-0.8-0.9-1.5-1.5-2.1s-1.3-1.2-2.1-1.6s-1.6-1-2.5-1.5c-0.6-0.4-1.1-0.8-1.4-1.1s-0.4-0.6-0.4-0.9c0-0.5,0.2-0.8,0.5-1
		s0.6-0.3,1-0.3c0.4,0,0.7,0.1,0.9,0.2s0.5,0.3,0.7,0.5s0.3,0.4,0.5,0.7s0.2,0.5,0.2,0.7l4.1-1.6c-0.1-0.6-0.3-1.1-0.6-1.7
		s-0.7-1.1-1.2-1.5s-1.2-0.8-2-1.1s-1.7-0.4-2.7-0.4c-0.9,0-1.7,0.2-2.5,0.4s-1.5,0.6-2.1,1.1s-1.1,1-1.5,1.7s-0.6,1.5-0.6,2.4
		c0,1,0.2,1.8,0.5,2.5s0.8,1.2,1.4,1.8s1.3,1,2.1,1.5s1.7,1,2.6,1.7c0.4,0.3,0.8,0.6,1,0.8c0.3,0.3,0.4,0.6,0.4,1
		c0,0.5-0.1,0.8-0.4,1.1c-0.3,0.2-0.6,0.4-0.9,0.4c-0.1,0-0.1,0-0.2,0c-0.3,0-0.6-0.1-0.8-0.2c-0.3-0.2-0.6-0.5-0.8-0.7
		s-0.4-0.5-0.5-0.8s-0.2-0.4-0.1-0.4L260.1,19.8z"/>
	<path class="st0" d="M283.4,28.9V-0.4h18.9v29.3H283.4z M284.6,16.4c0,1.2,0.2,2.3,0.6,3.3s0.9,1.9,1.5,2.6s1.4,1.3,2.4,1.7
		s2.1,0.6,3.3,0.6h0c0.8,0,1.6-0.1,2.3-0.3s1.4-0.5,2-0.9c0.6-0.4,1.2-0.8,1.7-1.2c0.5-0.5,0.9-1,1.3-1.5v-7.3H293v4h2.2v1
		c-0.2,0.4-0.5,0.7-0.9,0.9c-0.4,0.2-0.9,0.3-1.5,0.3c0,0-0.1,0-0.1,0c-0.5,0-0.9-0.1-1.3-0.3s-0.7-0.4-1-0.7s-0.5-0.7-0.7-1.1
		s-0.3-0.9-0.3-1.4v-4.1c0-1,0.3-1.9,0.8-2.5s1.3-0.9,2.2-0.9c0.5,0,0.9,0.1,1.2,0.2s0.6,0.4,0.8,0.6c0.2,0.2,0.4,0.5,0.5,0.7
		s0.2,0.5,0.3,0.7l3.9-2.6c-0.2-0.3-0.4-0.7-0.6-1.2c-0.2-0.5-0.6-1-1.1-1.5c-0.5-0.5-1.1-1-1.9-1.3s-1.8-0.6-3.1-0.7h0
		c-1.3,0-2.4,0.2-3.4,0.7s-1.8,1.1-2.4,1.8c-0.7,0.8-1.1,1.6-1.5,2.6s-0.5,2.1-0.5,3.2V16.4z"/>
	<path class="st0" d="M302.1,28.9V-0.4h18.6v29.3H302.1z M303.8,16.3c0,1.1,0.2,2.2,0.5,3.2s0.8,1.9,1.6,2.7
		c0.8,0.8,1.7,1.4,2.6,1.8s2,0.6,3.1,0.6h0c1.1,0,2.1-0.2,3.1-0.6s1.9-1.1,2.6-1.9c0.7-0.8,1.3-1.7,1.6-2.7s0.5-2.1,0.5-3.1v-4.9
		c0-0.9-0.2-1.9-0.5-2.8s-0.8-1.7-1.5-2.4c-0.8-0.8-1.6-1.4-2.6-1.9s-2-0.6-3.1-0.6h0c-1.1,0-2.1,0.2-3.1,0.6s-1.8,1-2.6,1.9
		c-0.7,0.7-1.2,1.5-1.5,2.4s-0.5,1.8-0.5,2.7V16.3z"/>
	<path class="st0" d="M320.5,28.9V-0.4h18.6v29.3H320.5z M322.2,16.3c0,1.1,0.2,2.2,0.5,3.2s0.8,1.9,1.6,2.7
		c0.8,0.8,1.7,1.4,2.6,1.8s2,0.6,3.1,0.6h0c1.1,0,2.1-0.2,3.1-0.6s1.9-1.1,2.6-1.9c0.7-0.8,1.3-1.7,1.6-2.7s0.5-2.1,0.5-3.1v-4.9
		c0-0.9-0.2-1.9-0.5-2.8s-0.8-1.7-1.5-2.4c-0.8-0.8-1.6-1.4-2.6-1.9s-2-0.6-3.1-0.6h0c-1.1,0-2.1,0.2-3.1,0.6s-1.8,1-2.6,1.9
		c-0.7,0.7-1.2,1.5-1.5,2.4s-0.5,1.8-0.5,2.7V16.3z"/>
	<path class="st0" d="M338.9,28.9V-0.4h18.4v29.3H338.9z M340.9,24.6h4.2h0.6c1.7,0,3.1-0.3,4.3-0.8s2.1-1.3,2.9-2.3
		s1.2-2.1,1.6-3.3c0.3-1.3,0.5-2.6,0.5-4c0-1.5-0.2-2.9-0.6-4.1c-0.4-1.3-1-2.4-1.8-3.3c-0.8-0.9-1.8-1.7-3.1-2.2
		c-1.2-0.5-2.7-0.8-4.3-0.8h-4.2V24.6z"/>
	<path class="st0" d="M357,28.9V-0.4h17.1v29.3H357z M358.5,19.8c0.2,0.7,0.5,1.4,0.9,2s0.9,1.1,1.5,1.5s1.3,0.7,2,1
		s1.5,0.3,2.4,0.3c1.1,0,2.1-0.1,2.9-0.4s1.6-0.6,2.2-1s1.1-1,1.4-1.5s0.5-1.2,0.6-1.9v-0.4c0-1.1-0.2-2-0.6-2.8
		c-0.4-0.8-0.9-1.5-1.5-2.1s-1.3-1.2-2.1-1.6s-1.6-1-2.5-1.5c-0.6-0.4-1.1-0.8-1.4-1.1S364,9.7,364,9.4c0-0.5,0.2-0.8,0.5-1
		s0.6-0.3,1-0.3c0.4,0,0.7,0.1,0.9,0.2s0.5,0.3,0.7,0.5s0.3,0.4,0.5,0.7s0.2,0.5,0.2,0.7l4.1-1.6c-0.1-0.6-0.3-1.1-0.6-1.7
		s-0.7-1.1-1.2-1.5s-1.2-0.8-2-1.1s-1.7-0.4-2.7-0.4c-0.9,0-1.7,0.2-2.5,0.4s-1.5,0.6-2.1,1.1s-1.1,1-1.5,1.7s-0.6,1.5-0.6,2.4
		c0,1,0.2,1.8,0.5,2.5s0.8,1.2,1.4,1.8s1.3,1,2.1,1.5s1.7,1,2.6,1.7c0.4,0.3,0.8,0.6,1,0.8c0.3,0.3,0.4,0.6,0.4,1
		c0,0.5-0.1,0.8-0.4,1.1c-0.3,0.2-0.6,0.4-0.9,0.4c-0.1,0-0.1,0-0.2,0c-0.3,0-0.6-0.1-0.8-0.2c-0.3-0.2-0.6-0.5-0.8-0.7
		s-0.4-0.5-0.5-0.8s-0.2-0.4-0.1-0.4L358.5,19.8z"/>
</g>
<text transform="matrix(1 0 0 1 140.9885 53.2244)"><tspan x="0" y="0" class="st0 st1 st2">FROM </tspan><tspan x="80.1" y="-1" class="st3 st4 st5"></tspan><tspan x="104.1" y="0" class="st0 st1 st2"> NEW EN</tspan><tspan x="216" y="0" class="st0 st1 st2">GL</tspan><tspan x="247.4" y="0" class="st0 st1 st2">AND</tspan></text>
<rect x="154.2" y="-0.4" class="st0" width="7.6" height="29.3"/>
<rect x="275.6" y="-0.4" class="st0" width="8" height="29.3"/>
</svg>
