<?xml version="1.0" encoding="utf-8"?>
<!-- Generator: Adobe Illustrator 19.1.0, SVG Export Plug-In . SVG Version: 6.00 Build 0)  -->
<svg version="1.1" id="Layer_1" xmlns="http://www.w3.org/2000/svg" xmlns:xlink="http://www.w3.org/1999/xlink" x="0px" y="0px"
	 viewBox="0 0 1502 188" style="enable-background:new 0 0 1502 188;" xml:space="preserve">
<style type="text/css">
	.st0{fill:#FFFFFF;}
	.st1{fill:#EF4136;}
	.st2{fill:#3B3D3A;}
	.st3{fill:#6D6E71;}
	.st4{fill:#F1F2F2;}
</style>
<rect x="4" y="13.1" class="st0" width="1488.9" height="165.6"/>
<g>
	<path class="st1" d="M0.3,188V-1.3h117.9V188H0.3z M6.7,25.3L45,92.6V160h28.5V92.6l36.1-67.3H75.7L60.2,57.2L44.3,25.3H6.7z"/>
	<path class="st2" d="M116.4,188V-1.3h143.7V188H116.4z M126,160h34.6l11.9-35.4h26.2l12.1,35.4h34.6L206,25.3h-40.6L126,160z"/>
	<path class="st2" d="M248.1,188V-1.3h120.5V188H248.1z M258.8,160H291V93.7l36.2,66.3H358V25.3h-32.3v66.1l-36-66.1h-30.9V160z"/>
	<path class="st2" d="M366.1,188V-1.3h114.7V188H366.1z M377.7,160h30.4v-29.2l21.7,29.2h37.7l-50-67.2l50.2-67.5H430l-21.9,31.4
		V25.3h-30.4V160z"/>
	<path class="st2" d="M475.2,188V-1.3h105.7V188H475.2z M486.7,160h82.5v-30.4H517v-21.7h38.4V77.4H517V55.7h52.3V25.3h-82.5V160z"
		/>
	<path class="st2" d="M574.8,188V-1.3h105.7V188H574.8z M586.4,160H669v-30.4h-52.3v-21.7H655V77.4h-38.4V55.7H669V25.3h-82.5V160z"
		/>
	<path class="st3" d="M724.9,188V-1.3h120.8V188H724.9z M734.9,107c0.4,7,1.4,13.7,3.3,20.2c1.8,6.5,4.7,12.1,8.6,17
		c3.9,4.9,9,8.8,15.2,11.7c6.2,2.9,13.9,4.3,23.1,4.3h0.2c8.2,0,15.1-1.2,20.7-3.5c5.6-2.4,10.2-5.2,13.8-8.4s6.4-6.6,8.4-9.9
		c2-3.4,3.5-6.2,4.6-8.4l-26.2-14.7c-1.8,4.2-4.4,7.9-7.9,10.9c-3.1,2.7-6.8,4.1-11.3,4.1c-0.5,0-1.1,0-1.6-0.1
		c-6.1-0.5-11.1-3-14.8-7.5s-5.7-10.1-5.7-16.7V79.7c0-6.6,1.8-12.2,5.5-16.5c3.7-4.4,8.6-6.8,14.8-7.4c0.2,0,0.5,0,0.7,0
		c2.2,0,4.4,0.5,6.5,1.5c2.3,1.1,4.3,2.5,6.1,4.3c1.8,1.8,3.3,3.9,4.6,6.1c1.3,2.3,2.3,4.5,3,6.7l26.2-14.7
		c-1.4-4.1-3.2-8.2-5.5-12.3c-2.3-4.1-5.4-7.8-9.2-11s-8.4-6-13.7-8s-11.6-3.1-19-3.1h-0.2c-8.3,0-15.6,1.5-21.9,4.6
		c-6.3,3.1-11.5,7.2-15.7,12.2c-4.2,5.1-7.3,10.8-9.4,17.3c-2.1,6.5-3.2,13-3.4,19.7V107z"/>
	<path class="st3" d="M838.4,188V-1.3h143.7V188H838.4z M847.9,160h34.6l11.9-35.4h26.2l12.1,35.4h34.6L928,25.3h-40.6L847.9,160z"
		/>
	<path class="st3" d="M973.7,188V-1.3h120.5V188H973.7z M984.4,160h32.2V93.7l36.2,66.3h30.8V25.3h-32.3v66.1l-36-66.1h-30.9V160z"
		/>
	<path class="st3" d="M1091.7,188V-1.3h126.6V188H1091.7z M1099.1,25.3l41.4,134.7h27.1l43.2-134.7h-35.8l-19.9,60.8l-20.3-60.8
		H1099.1z"/>
	<path class="st3" d="M1209.1,188V-1.3h143.7V188H1209.1z M1218.7,160h34.6l11.9-35.4h26.2l12.1,35.4h34.6l-39.4-134.7h-40.6
		L1218.7,160z"/>
	<path class="st3" d="M1343,188V-1.3h110.4V188H1343z M1352.8,129.1c1.2,4.8,3.1,9.1,5.9,12.9c2.7,3.8,6,7,9.9,9.7
		c3.9,2.7,8.2,4.7,12.9,6.1c4.8,1.4,9.9,2.2,15.3,2.2c7,0,13.3-0.8,18.8-2.4c5.5-1.6,10.3-3.9,14.2-6.7c3.9-2.9,7-6.2,9.2-10
		c2.2-3.8,3.5-7.9,3.7-12.2v-2.6c0-6.9-1.2-12.8-3.6-17.9c-2.4-5-5.6-9.5-9.6-13.5c-4-4-8.5-7.5-13.7-10.6c-5.1-3.1-10.5-6.3-16-9.5
		c-4-2.9-6.9-5.2-8.8-6.9c-1.9-1.7-2.8-3.8-2.8-6.1c0-3,1-5.3,3-6.8c2-1.5,4.2-2.3,6.6-2.3c2.3,0,4.3,0.5,6.1,1.4
		c1.8,0.9,3.3,2.1,4.6,3.5c1.3,1.4,2.3,2.9,3,4.6c0.7,1.7,1.2,3.1,1.6,4.4l26.6-10.5c-0.6-3.6-1.8-7.2-3.8-10.9
		c-1.9-3.7-4.6-7-8-9.9c-3.4-2.9-7.7-5.3-12.7-7.2c-5-1.9-10.8-2.8-17.5-2.8c-5.5,0.1-10.9,1-16.1,2.6c-5.2,1.6-9.8,3.9-13.7,6.9
		c-4,3-7.2,6.7-9.6,11.2c-2.4,4.5-3.6,9.7-3.6,15.6c0,6.4,1.1,11.7,3.4,16c2.2,4.2,5.3,8,9.2,11.4c3.9,3.4,8.5,6.6,13.7,9.7
		c5.2,3.1,10.9,6.7,17.1,10.8c2.8,1.9,4.9,3.8,6.5,5.5c1.6,1.9,2.5,4,2.5,6.3c0,3.1-0.9,5.4-2.8,6.9c-2,1.6-4,2.5-6.1,2.7
		c-0.5,0.1-0.9,0.1-1.4,0.1c-1.9,0-3.7-0.5-5.3-1.6c-2.1-1.4-3.9-3-5.3-4.7c-1.4-1.7-2.6-3.4-3.4-4.9c-0.8-1.6-1.1-2.4-0.8-2.5
		L1352.8,129.1z"/>
</g>
<rect x="679.5" y="-0.8" class="st2" width="45.3" height="189.3"/>
<rect x="1452" y="-1" class="st3" width="49" height="189"/>
<g>
	<path class="st4" d="M1465.9,11.9c3,0,5.9,0.8,8.7,2.3s5,3.7,6.6,6.5s2.4,5.8,2.4,8.9c0,3-0.8,6-2.3,8.8s-3.7,5-6.5,6.6
		s-5.7,2.3-8.8,2.3s-6-0.8-8.8-2.3s-5-3.7-6.6-6.6s-2.3-5.7-2.3-8.8c0-3.1,0.8-6,2.4-8.9s3.8-5,6.6-6.5S1463,11.9,1465.9,11.9z
		 M1465.9,14.8c-2.5,0-4.9,0.6-7.3,1.9s-4.2,3.1-5.5,5.5s-2,4.8-2,7.4c0,2.5,0.7,5,2,7.3s3.1,4.2,5.5,5.5s4.8,2,7.3,2s5-0.7,7.3-2
		s4.2-3.1,5.5-5.5s1.9-4.8,1.9-7.3c0-2.6-0.7-5-2-7.4s-3.2-4.2-5.5-5.5S1468.4,14.8,1465.9,14.8z M1471.6,32.5l2.9,0.8
		c-0.5,2-1.5,3.5-3,4.7s-3.4,1.7-5.5,1.7c-2.8,0-5-0.9-6.7-2.7s-2.6-4.2-2.6-7.4c0-2.1,0.4-3.9,1.2-5.4s1.9-2.7,3.3-3.4
		s3.1-1.2,5-1.2c2.1,0,3.8,0.5,5.2,1.5s2.3,2.3,2.8,4l-2.8,0.7c-0.5-1.2-1.2-2-2.1-2.7s-2-0.9-3.2-0.9c-1.8,0-3.3,0.6-4.4,1.9
		s-1.7,3.1-1.7,5.5s0.6,4.2,1.7,5.4s2.5,1.8,4.3,1.8c1.4,0,2.6-0.4,3.7-1.2S1471.3,33.8,1471.6,32.5z"/>
</g>
</svg>
